<svg xmlns="http://www.w3.org/2000/svg" width="30.59" height="30.59" viewBox="0 0 30.59 30.59">
  <path id="Caminho_470" data-name="Caminho 470" d="M26.4,15.455h-1.56a9.241,9.241,0,0,0-9.23-9.231V4.665A10.8,10.8,0,0,1,26.4,15.455Zm-10.791-8.1V8.915a6.543,6.543,0,0,1,6.537,6.539H23.7A8.1,8.1,0,0,0,15.607,7.357ZM15.3,0a15.295,15.295,0,1,0,0,30.59.944.944,0,0,0,0-1.888A13.407,13.407,0,1,1,28.7,15.3a8.691,8.691,0,0,1-4,7.448,5.78,5.78,0,0,1-2.771.713,4.432,4.432,0,0,0,1.49-1.432,2.011,2.011,0,0,0,.223-.336,15.211,15.211,0,0,0,.52-2.358c.228-1-4.362-2.943-4.761-1.7a11.913,11.913,0,0,1-.655,2.3c-.258.343-.892.18-1.289-.157-1.046-.891-2.214-2.2-3.238-3.237h0l-.086-.086c-.029-.027-.058-.058-.087-.086v0c-1.036-1.026-2.347-2.191-3.237-3.239-.337-.4-.5-1.032-.157-1.289a11.914,11.914,0,0,1,2.3-.655c1.242-.4-.7-4.989-1.7-4.761A15.125,15.125,0,0,0,8.9,6.942a2.214,2.214,0,0,0-.336.225c-2.621,1.661-2.959,5.7-.4,8.7.975,1.15,1.992,2.262,3.039,3.349l-.006,0c.029.029.059.056.089.084s.055.058.082.089l.006-.006a28.786,28.786,0,0,0,4.466,3.985c4.4,2.941,7.784,2.12,9.775,1.028,3.437-1.893,4.974-5.935,4.974-9.1A15.313,15.313,0,0,0,15.3,0Z" fill="red"/>
</svg>
