<svg xmlns="http://www.w3.org/2000/svg" width="24.447" height="24.447" viewBox="0 0 24.447 24.447">
  <path id="União_4" data-name="União 4" d="M7.283,24.447A7.291,7.291,0,0,1,0,17.164V7.283A7.291,7.291,0,0,1,7.283,0h9.881a7.291,7.291,0,0,1,7.283,7.283v9.881a7.291,7.291,0,0,1-7.283,7.283ZM2.46,7.283v9.881a4.823,4.823,0,0,0,4.823,4.823h9.881a4.824,4.824,0,0,0,4.824-4.823V7.283A4.824,4.824,0,0,0,17.164,2.46H7.283A4.823,4.823,0,0,0,2.46,7.283ZM5.9,12.322a6.323,6.323,0,1,1,6.323,6.322A6.329,6.329,0,0,1,5.9,12.322Zm2.459,0a3.864,3.864,0,1,0,3.864-3.864A3.863,3.863,0,0,0,8.36,12.322Zm8.683-6.807A1.515,1.515,0,1,1,18.559,7.03,1.516,1.516,0,0,1,17.043,5.515Z" fill="red"/>
</svg>
