<svg xmlns="http://www.w3.org/2000/svg" xmlns:xlink="http://www.w3.org/1999/xlink" width="169.954" height="95.826" viewBox="0 0 169.954 95.826">
  <defs>
    <linearGradient id="linear-gradient" y1="0.643" x2="1.16" y2="0.074" gradientUnits="objectBoundingBox">
      <stop offset="0" stop-color="#b6287a"/>
      <stop offset="0.516" stop-color="#9a1880"/>
      <stop offset="1" stop-color="#190031"/>
    </linearGradient>
    <linearGradient id="linear-gradient-2" x1="0.683" y1="-0.173" x2="0" y2="0.952" gradientUnits="objectBoundingBox">
      <stop offset="0" stop-color="#10044c"/>
      <stop offset="0.161" stop-color="#240856"/>
      <stop offset="1" stop-color="#6d1065"/>
    </linearGradient>
    <linearGradient id="linear-gradient-3" y1="0.5" x2="1" y2="0.5" gradientUnits="objectBoundingBox">
      <stop offset="0" stop-color="#ff8ea8"/>
      <stop offset="0.092" stop-color="#ce3384"/>
      <stop offset="0.213" stop-color="#cf347c"/>
      <stop offset="1" stop-color="#a01c7f"/>
    </linearGradient>
  </defs>
  <g id="Grupo_284" data-name="Grupo 284" transform="translate(-151 -51)">
    <path id="Caminho_1" data-name="Caminho 1" d="M92.53,105.054c-3.722-2.978-8.183-4.467-14.121-4.467a23.778,23.778,0,0,0-23.769,23.769c0,11.811,4.217,27.876,13.057,39.664.609.75.686.848,1.277,1.568h0c18.423-2.312,37.445-5.832,40.749-6.785l.089,3.975c-3.406.9-10.9,2.2-20.563,3.662-5.446.864-11.466,1.748-17.485,2.525,13.038,15.7,21.111,22.9,29.944,22.945v0h.107v0c9.559-.047,19.126-9.551,34.012-27.89,8.84-11.788,13.057-27.853,13.057-39.664a23.778,23.778,0,0,0-23.769-23.769c-5.939,0-10.4,1.489-14.121,4.467-3.458,2.766-6.349,4.168-9.232,4.209-2.882-.041-5.774-1.442-9.232-4.209Z" transform="translate(130.977 -49.587)" fill-rule="evenodd" fill="url(#linear-gradient)"/>
    <path id="Caminho_2" data-name="Caminho 2" d="M149.833,126.36c12.258-.015,23.626,1.04,18.549,7.363s-12.341,9.577-24.073,14.464c-.754,2.022-1.6,4.027-2.549,5.987,24.532-8.039,42.616-16.382,47.411-23.825s-12.22-10.137-39.368-7.41l.031,3.42Z" transform="translate(130.977 -49.587)" fill-rule="evenodd" fill="url(#linear-gradient-2)"/>
    <path id="Caminho_3" data-name="Caminho 3" d="M108.711,159.909c-6.493,1.7-78.189,14.734-72.512,2.662,3.259-6.929,12.054-12.263,21.3-16.465l-.625-1.9C39.021,150.93,24.325,158.6,20.751,164.145c-9.393,14.581,75.017.878,87.96-2.227v-2.009Z" transform="translate(130.977 -49.587)" fill-rule="evenodd" fill="url(#linear-gradient-3)"/>
    <path id="Caminho_4" data-name="Caminho 4" d="M57.489,142.99l9.231-11.965,8.841-20.806,6.786,24.735,15.627-5.625-31.255,1.7-11.538-11.74,20.379-9.066L64.125,105.36" transform="translate(130.977 -49.587)" fill="none" stroke="#f66289" stroke-miterlimit="22.926" stroke-width="0.1" fill-rule="evenodd"/>
    <path id="Caminho_5" data-name="Caminho 5" d="M95.811,107.361l-20.251,2.858,22.414,19.11" transform="translate(130.977 -49.587)" fill="none" stroke="#f66289" stroke-miterlimit="22.926" stroke-width="0.1" fill-rule="evenodd"/>
    <path id="Caminho_6" data-name="Caminho 6" d="M118.87,142.188,110.3,154.154l-30.362-9.377,16.341-1.964,14.34,10.893-31.854,6.54" transform="translate(130.977 -49.587)" fill="none" stroke="#f66289" stroke-miterlimit="22.926" stroke-width="0.1" fill-rule="evenodd"/>
    <path id="Caminho_7" data-name="Caminho 7" d="M114.852,103.164l3.483.893,8.765-3.387" transform="translate(130.977 -49.587)" fill="none" stroke="#f66289" stroke-miterlimit="22.926" stroke-width="0.1" fill-rule="evenodd"/>
    <path id="Caminho_8" data-name="Caminho 8" d="M147.939,134.768l-1.922-9.368-12.769,18.306,13.266-2.44" transform="translate(130.977 -49.587)" fill="none" stroke="#f66289" stroke-miterlimit="22.926" stroke-width="0.1" fill-rule="evenodd"/>
    <path id="Caminho_9" data-name="Caminho 9" d="M118.87,142.188l13.306,6.161,22.6,1.3" transform="translate(130.977 -49.587)" fill="none" stroke="#f66289" stroke-miterlimit="22.926" stroke-width="0.1" fill-rule="evenodd"/>
    <path id="Caminho_10" data-name="Caminho 10" d="M139.083,159.154l-6.669-4.375,9.345-.6" transform="translate(130.977 -49.587)" fill="none" stroke="#f66289" stroke-miterlimit="22.926" stroke-width="0.1" fill-rule="evenodd"/>
    <path id="Caminho_11" data-name="Caminho 11" d="M90.948,188.089,93.8,172.475l7.911,19.436" transform="translate(130.977 -49.587)" fill="none" stroke="#f66289" stroke-miterlimit="22.926" stroke-width="0.1" fill-rule="evenodd"/>
    <path id="Caminho_12" data-name="Caminho 12" d="M87.578,185.564l24.952-8.55-4.154,13.415" transform="translate(130.977 -49.587)" fill="none" stroke="#f66289" stroke-miterlimit="22.926" stroke-width="0.1" fill-rule="evenodd"/>
    <line id="Linha_1" data-name="Linha 1" x1="34.94" y1="1.3" transform="translate(208.567 126.127)" fill="none" stroke="#f66289" stroke-miterlimit="22.926" stroke-width="0.1"/>
    <path id="Caminho_13" data-name="Caminho 13" d="M128.947,172.284l-9.094-6.878,3.4,13.219" transform="translate(130.977 -49.587)" fill="none" stroke="#f66289" stroke-miterlimit="22.926" stroke-width="0.1" fill-rule="evenodd"/>
    <line id="Linha_2" data-name="Linha 2" x1="4.957" y1="6.843" transform="translate(222.641 134.577)" fill="none" stroke="#f66289" stroke-miterlimit="22.926" stroke-width="0.1"/>
    <line id="Linha_3" data-name="Linha 3" x1="13.965" y1="7.485" transform="translate(208.892 125.914)" fill="none" stroke="#f66289" stroke-miterlimit="22.926" stroke-width="0.1"/>
    <line id="Linha_4" data-name="Linha 4" x1="0.003" y2="7.254" transform="translate(292.742 90.109)" fill="none" stroke="#f66289" stroke-miterlimit="22.926" stroke-width="0.1"/>
    <line id="Linha_5" data-name="Linha 5" y1="9.42" x2="18.297" transform="translate(299.359 74.717)" fill="none" stroke="#f66289" stroke-miterlimit="22.926" stroke-width="0.1"/>
    <line id="Linha_6" data-name="Linha 6" x2="7.152" y2="5.563" transform="translate(301.008 83.288)" fill="none" stroke="#f66289" stroke-miterlimit="22.926" stroke-width="0.1"/>
    <line id="Linha_7" data-name="Linha 7" y1="5.806" x2="1.227" transform="translate(296.754 72.321)" fill="none" stroke="#f66289" stroke-miterlimit="22.926" stroke-width="0.1"/>
    <path id="Caminho_14" data-name="Caminho 14" d="M109.919,140.09a.692.692,0,1,1-.692.692A.692.692,0,0,1,109.919,140.09Z" transform="translate(130.977 -49.587)" fill="#f66289" stroke="#f66289" stroke-miterlimit="22.926" stroke-width="0.2" fill-rule="evenodd"/>
    <path id="Caminho_15" data-name="Caminho 15" d="M97.975,128.389a.939.939,0,1,1-.939.939A.939.939,0,0,1,97.975,128.389Z" transform="translate(130.977 -49.587)" fill="#f66289" stroke="#f66289" stroke-miterlimit="22.926" stroke-width="0.2" fill-rule="evenodd"/>
    <path id="Caminho_16" data-name="Caminho 16" d="M66.542,130.705a.939.939,0,1,1-.939.939A.94.94,0,0,1,66.542,130.705Z" transform="translate(130.977 -49.587)" fill="#f66289" stroke="#f66289" stroke-miterlimit="22.926" stroke-width="0.2" fill-rule="evenodd"/>
    <path id="Caminho_17" data-name="Caminho 17" d="M75.561,109.28a.939.939,0,1,1-.939.939A.939.939,0,0,1,75.561,109.28Z" transform="translate(130.977 -49.587)" fill="#f66289" stroke="#f66289" stroke-miterlimit="22.926" stroke-width="0.2" fill-rule="evenodd"/>
    <path id="Caminho_18" data-name="Caminho 18" d="M118.87,141.5a.692.692,0,1,1-.692.692A.692.692,0,0,1,118.87,141.5Z" transform="translate(130.977 -49.587)" fill="#f66289" stroke="#f66289" stroke-miterlimit="22.926" stroke-width="0.2" fill-rule="evenodd"/>
    <path id="Caminho_19" data-name="Caminho 19" d="M132.176,147.657a.692.692,0,1,1-.692.692A.692.692,0,0,1,132.176,147.657Z" transform="translate(130.977 -49.587)" fill="#f66289" stroke="#f66289" stroke-miterlimit="22.926" stroke-width="0.2" fill-rule="evenodd"/>
    <path id="Caminho_20" data-name="Caminho 20" d="M119.853,165.406a.692.692,0,1,1-.692.692A.692.692,0,0,1,119.853,165.406Z" transform="translate(130.977 -49.587)" fill="#f66289" stroke="#f66289" stroke-miterlimit="22.926" stroke-width="0.2" fill-rule="evenodd"/>
    <path id="Caminho_21" data-name="Caminho 21" d="M93.8,172.475a.692.692,0,1,1-.692.692A.692.692,0,0,1,93.8,172.475Z" transform="translate(130.977 -49.587)" fill="#f66289" stroke="#f66289" stroke-miterlimit="22.926" stroke-width="0.2" fill-rule="evenodd"/>
    <path id="Caminho_22" data-name="Caminho 22" d="M92.471,184.587a.692.692,0,1,1-.692.692A.692.692,0,0,1,92.471,184.587Z" transform="translate(130.977 -49.587)" fill="#f66289" stroke="#f66289" stroke-miterlimit="22.926" stroke-width="0.2" fill-rule="evenodd"/>
    <path id="Caminho_23" data-name="Caminho 23" d="M122.849,107.62a.335.335,0,1,1-.335.335A.335.335,0,0,1,122.849,107.62Z" transform="translate(130.977 -49.587)" fill="#f66289" stroke="#f66289" stroke-miterlimit="22.926" stroke-width="0.2" fill-rule="evenodd"/>
    <path id="Caminho_24" data-name="Caminho 24" d="M118.335,103.387a.335.335,0,1,1-.335.335A.335.335,0,0,1,118.335,103.387Z" transform="translate(130.977 -49.587)" fill="#f66289" stroke="#f66289" stroke-miterlimit="22.926" stroke-width="0.2" fill-rule="evenodd"/>
    <path id="Caminho_25" data-name="Caminho 25" d="M79.472,107.241a.335.335,0,1,1-.335.335A.335.335,0,0,1,79.472,107.241Z" transform="translate(130.977 -49.587)" fill="#f66289" stroke="#f66289" stroke-miterlimit="22.926" stroke-width="0.2" fill-rule="evenodd"/>
    <path id="Caminho_26" data-name="Caminho 26" d="M73.154,106.281a.335.335,0,1,1-.335.335A.335.335,0,0,1,73.154,106.281Z" transform="translate(130.977 -49.587)" fill="#f66289" stroke="#f66289" stroke-miterlimit="22.926" stroke-width="0.2" fill-rule="evenodd"/>
    <path id="Caminho_27" data-name="Caminho 27" d="M120.124,138.607a.335.335,0,1,1-.335.335A.335.335,0,0,1,120.124,138.607Z" transform="translate(130.977 -49.587)" fill="#f66289" stroke="#f66289" stroke-miterlimit="22.926" stroke-width="0.2" fill-rule="evenodd"/>
    <path id="Caminho_28" data-name="Caminho 28" d="M129.836,131.106a.335.335,0,1,1-.335.335A.335.335,0,0,1,129.836,131.106Z" transform="translate(130.977 -49.587)" fill="#f66289" stroke="#f66289" stroke-miterlimit="22.926" stroke-width="0.2" fill-rule="evenodd"/>
    <path id="Caminho_29" data-name="Caminho 29" d="M137.4,151.109a.335.335,0,1,1-.335.335A.335.335,0,0,1,137.4,151.109Z" transform="translate(130.977 -49.587)" fill="#f66289" stroke="#f66289" stroke-miterlimit="22.926" stroke-width="0.2" fill-rule="evenodd"/>
    <path id="Caminho_30" data-name="Caminho 30" d="M122.089,149.144a.335.335,0,1,1-.335.335A.335.335,0,0,1,122.089,149.144Z" transform="translate(130.977 -49.587)" fill="#f66289" stroke="#f66289" stroke-miterlimit="22.926" stroke-width="0.2" fill-rule="evenodd"/>
    <path id="Caminho_31" data-name="Caminho 31" d="M133.7,149.858a.335.335,0,1,1-.335.335A.335.335,0,0,1,133.7,149.858Z" transform="translate(130.977 -49.587)" fill="#f66289" stroke="#f66289" stroke-miterlimit="22.926" stroke-width="0.2" fill-rule="evenodd"/>
    <path id="Caminho_32" data-name="Caminho 32" d="M111.976,147.894a.335.335,0,1,1-.335.335A.335.335,0,0,1,111.976,147.894Z" transform="translate(130.977 -49.587)" fill="#f66289" stroke="#f66289" stroke-miterlimit="22.926" stroke-width="0.2" fill-rule="evenodd"/>
    <path id="Caminho_33" data-name="Caminho 33" d="M92.487,127.891a.335.335,0,1,1-.335.335.335.335,0,0,1,.335-.335Z" transform="translate(130.977 -49.587)" fill="#f66289" stroke="#f66289" stroke-miterlimit="22.926" stroke-width="0.2" fill-rule="evenodd"/>
    <path id="Caminho_34" data-name="Caminho 34" d="M62.683,113.782a.335.335,0,1,1-.335.335A.335.335,0,0,1,62.683,113.782Z" transform="translate(130.977 -49.587)" fill="#f66289" stroke="#f66289" stroke-miterlimit="22.926" stroke-width="0.2" fill-rule="evenodd"/>
    <path id="Caminho_35" data-name="Caminho 35" d="M69.827,135.906a.335.335,0,1,1-.335.335A.335.335,0,0,1,69.827,135.906Z" transform="translate(130.977 -49.587)" fill="#f66289" stroke="#f66289" stroke-miterlimit="22.926" stroke-width="0.2" fill-rule="evenodd"/>
    <path id="Caminho_36" data-name="Caminho 36" d="M85.812,131.731a.335.335,0,1,1-.335.335A.335.335,0,0,1,85.812,131.731Z" transform="translate(130.977 -49.587)" fill="#f66289" stroke="#f66289" stroke-miterlimit="22.926" stroke-width="0.2" fill-rule="evenodd"/>
    <path id="Caminho_37" data-name="Caminho 37" d="M64.18,118.068a.335.335,0,1,1-.335.335A.335.335,0,0,1,64.18,118.068Z" transform="translate(130.977 -49.587)" fill="#f66289" stroke="#f66289" stroke-miterlimit="22.926" stroke-width="0.2" fill-rule="evenodd"/>
    <path id="Caminho_38" data-name="Caminho 38" d="M93.581,139.656a.335.335,0,1,1-.335.335A.335.335,0,0,1,93.581,139.656Z" transform="translate(130.977 -49.587)" fill="#f66289" stroke="#f66289" stroke-miterlimit="22.926" stroke-width="0.2" fill-rule="evenodd"/>
    <path id="Caminho_39" data-name="Caminho 39" d="M98.3,176.15a.335.335,0,1,1-.335.335A.335.335,0,0,1,98.3,176.15Z" transform="translate(130.977 -49.587)" fill="#f66289" stroke="#f66289" stroke-miterlimit="22.926" stroke-width="0.2" fill-rule="evenodd"/>
    <path id="Caminho_40" data-name="Caminho 40" d="M113.316,166.222a.335.335,0,1,1-.335.335A.335.335,0,0,1,113.316,166.222Z" transform="translate(130.977 -49.587)" fill="#f66289" stroke="#f66289" stroke-miterlimit="22.926" stroke-width="0.2" fill-rule="evenodd"/>
    <path id="Caminho_41" data-name="Caminho 41" d="M124.735,171.68a.335.335,0,1,1-.335.335A.335.335,0,0,1,124.735,171.68Z" transform="translate(130.977 -49.587)" fill="#f66289" stroke="#f66289" stroke-miterlimit="22.926" stroke-width="0.2" fill-rule="evenodd"/>
    <path id="Caminho_42" data-name="Caminho 42" d="M141.534,116.751a.335.335,0,1,1-.335.335A.335.335,0,0,1,141.534,116.751Z" transform="translate(130.977 -49.587)" fill="#f66289" stroke="#f66289" stroke-miterlimit="22.926" stroke-width="0.2" fill-rule="evenodd"/>
    <path id="Caminho_43" data-name="Caminho 43" d="M173.324,125.5a.335.335,0,1,1-.335.335A.335.335,0,0,1,173.324,125.5Z" transform="translate(130.977 -49.587)" fill="#f66289" stroke="#f66289" stroke-miterlimit="22.926" stroke-width="0.2" fill-rule="evenodd"/>
    <path id="Caminho_44" data-name="Caminho 44" d="M181,129.61a.335.335,0,1,1-.335.335A.335.335,0,0,1,181,129.61Z" transform="translate(130.977 -49.587)" fill="#f66289" stroke="#f66289" stroke-miterlimit="22.926" stroke-width="0.2" fill-rule="evenodd"/>
    <path id="Caminho_45" data-name="Caminho 45" d="M169.06,136.91a.335.335,0,1,1-.335.335A.335.335,0,0,1,169.06,136.91Z" transform="translate(130.977 -49.587)" fill="#f66289" stroke="#f66289" stroke-miterlimit="22.926" stroke-width="0.2" fill-rule="evenodd"/>
    <path id="Caminho_46" data-name="Caminho 46" d="M174.2,129.231a.335.335,0,1,1-.335.335A.335.335,0,0,1,174.2,129.231Z" transform="translate(130.977 -49.587)" fill="#f66289" stroke="#f66289" stroke-miterlimit="22.926" stroke-width="0.2" fill-rule="evenodd"/>
    <path id="Caminho_47" data-name="Caminho 47" d="M161.767,142.653a.335.335,0,1,1-.335.335A.335.335,0,0,1,161.767,142.653Z" transform="translate(130.977 -49.587)" fill="#f66289" stroke="#f66289" stroke-miterlimit="22.926" stroke-width="0.2" fill-rule="evenodd"/>
    <line id="Linha_8" data-name="Linha 8" y1="6.375" x2="18.757" transform="translate(151.728 108.182)" fill="none" stroke="#f66289" stroke-miterlimit="22.926" stroke-width="0.1"/>
    <line id="Linha_9" data-name="Linha 9" x2="0.926" y2="12.277" transform="translate(158.586 108.501)" fill="none" stroke="#f66289" stroke-miterlimit="22.926" stroke-width="0.1"/>
    <line id="Linha_10" data-name="Linha 10" x2="9.233" y2="0.298" transform="translate(163.988 105.273)" fill="none" stroke="#f66289" stroke-miterlimit="22.926" stroke-width="0.1"/>
    <line id="Linha_11" data-name="Linha 11" x1="3.136" y1="2.481" transform="translate(173.328 100.624)" fill="none" stroke="#f66289" stroke-miterlimit="22.926" stroke-width="0.1"/>
    <line id="Linha_12" data-name="Linha 12" x1="1.319" y1="3.022" transform="translate(176.352 99.275)" fill="none" stroke="#f66289" stroke-miterlimit="22.926" stroke-width="0.1"/>
    <line id="Linha_13" data-name="Linha 13" x1="3.438" y2="4.836" transform="translate(164.738 116.276)" fill="none" stroke="#f66289" stroke-miterlimit="22.926" stroke-width="0.1"/>
    <path id="Caminho_48" data-name="Caminho 48" d="M41.85,167.238l1.478,3.343,1.891-3.03" transform="translate(130.977 -49.587)" fill="none" stroke="#f66289" stroke-miterlimit="22.926" stroke-width="0.1" fill-rule="evenodd"/>
    <line id="Linha_14" data-name="Linha 14" x2="1.022" y2="2.542" transform="translate(179.98 118.058)" fill="none" stroke="#f66289" stroke-miterlimit="22.926" stroke-width="0.1"/>
    <line id="Linha_15" data-name="Linha 15" x2="0.982" y2="2.464" transform="translate(181.175 118.05)" fill="none" stroke="#f66289" stroke-miterlimit="22.926" stroke-width="0.1"/>
    <line id="Linha_16" data-name="Linha 16" x1="1.841" y2="2.329" transform="translate(189.777 117.513)" fill="none" stroke="#f66289" stroke-miterlimit="22.926" stroke-width="0.1"/>
    <path id="Caminho_49" data-name="Caminho 49" d="M62.665,169.028l1.912-2.282,1.883,1.854" transform="translate(130.977 -49.587)" fill="none" stroke="#f66289" stroke-miterlimit="22.926" stroke-width="0.1" fill-rule="evenodd"/>
    <path id="Caminho_50" data-name="Caminho 50" d="M79.936,143.672a1.105,1.105,0,1,1-1.105,1.105A1.105,1.105,0,0,1,79.936,143.672Z" transform="translate(130.977 -49.587)" fill="#f66289" stroke="#f66289" stroke-miterlimit="22.926" stroke-width="0.2" fill-rule="evenodd"/>
    <path id="Caminho_51" data-name="Caminho 51" d="M96.545,142.077a.939.939,0,1,1-.939.939A.939.939,0,0,1,96.545,142.077Z" transform="translate(130.977 -49.587)" fill="#f66289" stroke="#f66289" stroke-miterlimit="22.926" stroke-width="0.2" fill-rule="evenodd"/>
    <path id="Caminho_52" data-name="Caminho 52" d="M110.3,153.462a.692.692,0,1,1-.692.692A.692.692,0,0,1,110.3,153.462Z" transform="translate(130.977 -49.587)" fill="#f66289" stroke="#f66289" stroke-miterlimit="22.926" stroke-width="0.2" fill-rule="evenodd"/>
    <path id="Caminho_53" data-name="Caminho 53" d="M71.993,142.715a.335.335,0,1,1-.335.335A.335.335,0,0,1,71.993,142.715Z" transform="translate(130.977 -49.587)" fill="#f66289" stroke="#f66289" stroke-miterlimit="22.926" stroke-width="0.2" fill-rule="evenodd"/>
    <path id="Caminho_54" data-name="Caminho 54" d="M60.273,142.246a.335.335,0,1,1-.335.335A.335.335,0,0,1,60.273,142.246Z" transform="translate(130.977 -49.587)" fill="#f66289" stroke="#f66289" stroke-miterlimit="22.926" stroke-width="0.2" fill-rule="evenodd"/>
    <path id="Caminho_55" data-name="Caminho 55" d="M89.719,161.378a.335.335,0,1,1-.335.335A.335.335,0,0,1,89.719,161.378Z" transform="translate(130.977 -49.587)" fill="#f66289" stroke="#f66289" stroke-miterlimit="22.926" stroke-width="0.2" fill-rule="evenodd"/>
    <path id="Caminho_56" data-name="Caminho 56" d="M106.73,168.879a.335.335,0,1,1-.335.335A.335.335,0,0,1,106.73,168.879Z" transform="translate(130.977 -49.587)" fill="#f66289" stroke="#f66289" stroke-miterlimit="22.926" stroke-width="0.2" fill-rule="evenodd"/>
    <path id="Caminho_57" data-name="Caminho 57" d="M25.09,165.486a.335.335,0,1,1-.335.335A.335.335,0,0,1,25.09,165.486Z" transform="translate(130.977 -49.587)" fill="#f66289" stroke="#f66289" stroke-miterlimit="22.926" stroke-width="0.2" fill-rule="evenodd"/>
    <path id="Caminho_58" data-name="Caminho 58" d="M42.391,151.734a.335.335,0,1,1-.335.335A.335.335,0,0,1,42.391,151.734Z" transform="translate(130.977 -49.587)" fill="#f66289" stroke="#f66289" stroke-miterlimit="22.926" stroke-width="0.2" fill-rule="evenodd"/>
    <path id="Caminho_59" data-name="Caminho 59" d="M33.187,159.7a.335.335,0,1,1-.335.335A.335.335,0,0,1,33.187,159.7Z" transform="translate(130.977 -49.587)" fill="#f66289" stroke="#f66289" stroke-miterlimit="22.926" stroke-width="0.2" fill-rule="evenodd"/>
    <path id="Caminho_60" data-name="Caminho 60" d="M112.53,177.014l7.323-10.916-.985,16.9" transform="translate(130.977 -49.587)" fill="none" stroke="#f66289" stroke-miterlimit="22.926" stroke-width="0.1" fill-rule="evenodd"/>
    <line id="Linha_17" data-name="Linha 17" x2="3.571" y2="15.895" transform="translate(256.188 64.561)" fill="none" stroke="#f66289" stroke-miterlimit="22.926" stroke-width="0.1"/>
    <line id="Linha_18" data-name="Linha 18" x1="15.002" y2="5.269" transform="translate(244.757 80.456)" fill="none" stroke="#f66289" stroke-miterlimit="22.926" stroke-width="0.1"/>
    <line id="Linha_19" data-name="Linha 19" x1="11.431" y2="21.164" transform="translate(244.757 64.561)" fill="none" stroke="#f66289" stroke-miterlimit="22.926" stroke-width="0.1"/>
    <line id="Linha_20" data-name="Linha 20" x1="15.358" y1="3.305" transform="translate(222.88 62.328)" fill="none" stroke="#f66289" stroke-miterlimit="22.926" stroke-width="0.1"/>
    <line id="Linha_21" data-name="Linha 21" x1="4.821" y2="8.662" transform="translate(233.417 65.633)" fill="none" stroke="#f66289" stroke-miterlimit="22.926" stroke-width="0.1"/>
    <line id="Linha_22" data-name="Linha 22" x1="10.538" y1="11.967" transform="translate(222.88 62.328)" fill="none" stroke="#f66289" stroke-miterlimit="22.926" stroke-width="0.1"/>
    <path id="Caminho_61" data-name="Caminho 61" d="M125.211,113.456a.692.692,0,1,1-.692.692A.692.692,0,0,1,125.211,113.456Z" transform="translate(130.977 -49.587)" fill="#f66289" stroke="#f66289" stroke-miterlimit="22.926" stroke-width="0.1" fill-rule="evenodd"/>
    <line id="Linha_23" data-name="Linha 23" x2="0.535" y2="7.322" transform="translate(262.653 56.653)" fill="none" stroke="#f66289" stroke-miterlimit="22.926" stroke-width="0.1"/>
    <line id="Linha_24" data-name="Linha 24" y1="5.001" x2="6.43" transform="translate(263.188 58.974)" fill="none" stroke="#f66289" stroke-miterlimit="22.926" stroke-width="0.1"/>
    <line id="Linha_25" data-name="Linha 25" x2="6.965" y2="2.321" transform="translate(262.653 56.653)" fill="none" stroke="#f66289" stroke-miterlimit="22.926" stroke-width="0.1"/>
    <path id="Caminho_62" data-name="Caminho 62" d="M107.127,114.769a.692.692,0,1,1-.692.692A.692.692,0,0,1,107.127,114.769Z" transform="translate(130.977 -49.587)" fill="#f66289" stroke="#f66289" stroke-miterlimit="22.926" stroke-width="0.1" fill-rule="evenodd"/>
    <path id="Caminho_63" data-name="Caminho 63" d="M78.117,175.609l15.68-3.134,7.084-7.9m4.255-4.747,5.483-6.118" transform="translate(130.977 -49.587)" fill="none" stroke="#f66289" stroke-miterlimit="22.926" stroke-width="0.1" fill-rule="evenodd"/>
    <path id="Caminho_64" data-name="Caminho 64" d="M66.869,162.887l3.619-9.257,11.86-18.676L66.1,131.832l-11.152-1.693" transform="translate(130.977 -49.587)" fill="none" stroke="#f66289" stroke-miterlimit="22.926" stroke-width="0.1" fill-rule="evenodd"/>
    <path id="Caminho_65" data-name="Caminho 65" d="M55.394,133.614l10.7-1.782,30.18,10.981-13.93-7.859" transform="translate(130.977 -49.587)" fill="none" stroke="#f66289" stroke-miterlimit="22.926" stroke-width="0.1" fill-rule="evenodd"/>
    <path id="Caminho_66" data-name="Caminho 66" d="M96.278,142.813,78.764,160.246l-2.922,4.431m-2.71,4.11-.668,1.013" transform="translate(130.977 -49.587)" fill="none" stroke="#f66289" stroke-miterlimit="22.926" stroke-width="0.1" fill-rule="evenodd"/>
    <line id="Linha_26" data-name="Linha 26" x1="7.136" y1="5.413" transform="translate(160.041 107.571)" fill="none" stroke="#f66289" stroke-miterlimit="22.926" stroke-width="0.1"/>
    <line id="Linha_27" data-name="Linha 27" y1="3.416" x2="2.35" transform="translate(184.526 94.989)" fill="none" stroke="#f66289" stroke-miterlimit="22.926" stroke-width="0.1"/>
    <path id="Caminho_67" data-name="Caminho 67" d="M60.193,150.674l19.743-5.9,18.039-15.449-1.7,13.484L70.56,154.064l-3.84-23.039,13.216,13.752-1.3,19.5m-.253,3.79-.511,7.654,14.732-9.8m7.816-5.2,9.88-6.572,2.233,22.86L92.259,172.1l-6.1-5.179m-3.769-3.2-11.9-10.1-8.827.334" transform="translate(130.977 -49.587)" fill="none" stroke="#f66289" stroke-miterlimit="22.926" stroke-width="0.1" fill-rule="evenodd"/>
    <path id="Caminho_68" data-name="Caminho 68" d="M78.763,158.819a1.41,1.41,0,1,1-1.41,1.41A1.41,1.41,0,0,1,78.763,158.819Z" transform="translate(130.977 -49.587)" fill="#f66289" stroke="#f66289" stroke-miterlimit="22.926" stroke-width="0.2" fill-rule="evenodd"/>
    <path id="Caminho_69" data-name="Caminho 69" d="M111.645,168.966q.02-2.39,0-4.781l0-.492.485-.082.455-.079q0-.323,0-.645l0-.492.485-.081A32.565,32.565,0,0,0,118.417,161l.525-.184.2.518c1.088,2.782,2.109,5.589,3.152,8.388,1.034,2.775,2.1,5.539,3.283,8.256l.264.608-.639.177c-.23.064-.458.137-.684.217l.128.3.264.608-.639.177a18.269,18.269,0,0,0-3.625,1.571l-.557.3-.247-.583c-.432-1.02-.834-2.053-1.22-3.092q-.127.026-.253.055c-.01.789-.01,1.59.041,2.373l.039.6-.6.018q-.2.006-.4.016c.007.223.016.446.031.669l.039.6-.6.018a35.629,35.629,0,0,0-3.941.364l-.662.095,0-.669q.006-.93.024-1.859a3.922,3.922,0,0,1-.357.452q-.094.1-.19.2a5.2,5.2,0,0,1-.741,1.1,9.388,9.388,0,0,1-4.773,2.881c-1.052.253-2.17.431-3.239.6l-.544.085-.109-.54c-.487-2.4-.967-4.83-1.3-7.257q-.093-.686-.186-1.372a19.434,19.434,0,0,1-.421,5.321,7.837,7.837,0,0,1-1.791,3.633,6,6,0,0,1-1.374,1.719,4.481,4.481,0,0,1-3.734,1.076,5.272,5.272,0,0,1-3.255-2.463A14.973,14.973,0,0,1,88.32,180.6q-.083-.414-.159-.831a20.5,20.5,0,0,1-.5,5.141,7.854,7.854,0,0,1-1.784,3.587,5.977,5.977,0,0,1-1.43,1.766,4.388,4.388,0,0,1-3.729.956,5.339,5.339,0,0,1-3.234-2.569,14.957,14.957,0,0,1-1.906-5.139q-.029.716-.111,1.425a10.814,10.814,0,0,1-1.465,4.578,6.775,6.775,0,0,1-.721.948q-.1.177-.21.349a5.161,5.161,0,0,1-3.149,2.412,5.086,5.086,0,0,1-2.962-.063,4.5,4.5,0,0,1-2.107-1.547,9.275,9.275,0,0,1-1.233-2.215l-.009.035a7.685,7.685,0,0,1-1.734,3.395,5.739,5.739,0,0,1-1.538,1.845,4.322,4.322,0,0,1-3.738.763,5.575,5.575,0,0,1-3.191-2.818,15.951,15.951,0,0,1-1.843-5.7q-.051-.356-.1-.713-.06.853-.182,1.7a11.563,11.563,0,0,1-1.722,4.946,6.045,6.045,0,0,1-.544.678q-.179.318-.387.619a4.913,4.913,0,0,1-3.574,2.216,5.274,5.274,0,0,1-3.286-.574,6.7,6.7,0,0,1-2.253-2.139,11.583,11.583,0,0,1-1.556-3.548,17.872,17.872,0,0,1-.408-4.789c.053-1.662.323-3.9,1.366-5.261l.289-.379.082.041a4.784,4.784,0,0,1,.559-.96l.29-.379.316.158h.09l.16.133q.944.784,1.853,1.612c-.083-.794-.171-1.587-.284-2.377-.147-1.029-.351-2.05-.547-3.071l-.1-.544.54-.126.59-.137-.094-.491-.1-.544.54-.126c1.05-.245,2.1-.487,3.159-.7.842-.172,1.7-.332,2.549-.434l.466-.056.149.445c.386,1.155.725,2.324,1,3.51l.216-.068q-.01-.282-.016-.565l-.008-.429.409-.131c1.008-.323,2.028-.625,3.058-.868a16.31,16.31,0,0,1,2.427-.412l.6-.048.02.6q.008.253.021.507l.207-.008.5-.018q-.055-.3-.112-.592l-.13-.662.674-.025q2.05-.075,4.1-.173l.479-.023.11.467a45.528,45.528,0,0,1,.94,5.231q.04.351.075.7l.058-.1h.277A5.563,5.563,0,0,1,64.814,178l.169-.275h.51l.136.082c.519.31,1.021.642,1.512.993q-.311-2.379-.709-4.745l-.08-.473.451-.164q.316-.115.632-.227-.036-.217-.072-.433l-.08-.473.451-.164a36.765,36.765,0,0,1,5.221-1.57l.531-.107.14.523q.167.624.326,1.249l.363-.137q-.013-.258-.023-.515l-.016-.412.384-.148c1-.385,2.012-.749,3.037-1.055a17.014,17.014,0,0,1,2.414-.563l.627-.09.031.633q.01.209.023.419l.16-.014.538-.048q-.058-.276-.118-.552l-.14-.639.652-.058q2.053-.183,4.1-.375l.488-.046.123.475q.088.339.172.678l.194-.078c-.009-.17-.016-.34-.02-.51l-.008-.392.362-.151a25.6,25.6,0,0,1,5.426-1.729l.637-.1.032.644q.01.2.024.393l.134-.015.556-.062q-.061-.265-.123-.53l-.15-.635.648-.071c1.363-.15,2.723-.321,4.083-.492l.492-.062.135.477q.11.389.215.78l.139-.124a12.712,12.712,0,0,1,4.9-2.321c2.762-.751,5.24-.056,6.612,2.569a6.1,6.1,0,0,1,.58,1.612ZM43.153,180.682c-.1-.986-.2-1.985-.348-3s-.348-2.039-.551-3.1a57.35,57.35,0,0,1,5.645-1.126,36.14,36.14,0,0,1,1.1,4c.3,1.439.539,3.023.755,4.7a25.23,25.23,0,0,1-.014,6.823,10.9,10.9,0,0,1-1.625,4.7,4.333,4.333,0,0,1-3.164,1.972,4.692,4.692,0,0,1-2.931-.5A6.113,6.113,0,0,1,39.96,193.2a10.984,10.984,0,0,1-1.48-3.372,17.3,17.3,0,0,1-.392-4.632,8.823,8.823,0,0,1,1.248-4.929.094.094,0,0,0,.029.006c1.146.952,2.278,1.972,3.338,3.03a7.446,7.446,0,0,0-.508,2.812c0,1.7.419,2.656,1.277,2.65a1.7,1.7,0,0,0,1.48-1.137,3.871,3.871,0,0,0,.3-2.241,46.055,46.055,0,0,0-.581-5.181c-.522.162-1.016.314-1.524.476Zm7.43,1.518c-.1-1.283-.16-2.426-.232-3.428s-.116-1.888-.131-2.627a25.483,25.483,0,0,1,5.355-1.255c.029.9.167,2.654.29,5.282a26.081,26.081,0,0,0,.7,5.842c.219.7.568,1.067.958,1.025.44-.048.726-.479.784-1.2a30.274,30.274,0,0,0-.087-4.711,57.937,57.937,0,0,0-.885-6.481c1.379-.051,2.728-.107,4.107-.174a45.115,45.115,0,0,1,.929,5.165c.189,1.656.281,3.227.319,4.728a21.95,21.95,0,0,1-.61,6.083,6.433,6.433,0,0,1-2.133,3.63,3.74,3.74,0,0,1-3.251.661,4.96,4.96,0,0,1-2.83-2.549,15.241,15.241,0,0,1-1.77-5.495,25.4,25.4,0,0,1-.334-4.767c-.377.078-.8.179-1.175.269Zm17.168-2.941c-.218-1.731-.479-3.546-.8-5.439a36.972,36.972,0,0,1,5.137-1.546c.29,1.087.6,2.274.871,3.551s.549,2.665.769,4.134a23.1,23.1,0,0,1,.189,6.072,10.173,10.173,0,0,1-1.379,4.335,4.581,4.581,0,0,1-2.8,2.162,4.5,4.5,0,0,1-2.627-.045,3.916,3.916,0,0,1-1.843-1.35,8.532,8.532,0,0,1-1.393-2.784,15.43,15.43,0,0,1-.522-4.139,9.216,9.216,0,0,1,.972-4.75h.029a24.7,24.7,0,0,1,3.077,2.207,6.565,6.565,0,0,0-.392,2.571c.055,1.529.441,2.339,1.2,2.235a1.81,1.81,0,0,0,1.306-1.193,3.763,3.763,0,0,0,.189-2.039,38.911,38.911,0,0,0-.638-4.571c-.45.2-.9.386-1.35.588Zm6.647-.611c-.131-1.249-.24-2.365-.334-3.355s-.145-1.854-.174-2.594a26.567,26.567,0,0,1,5.326-1.585c.044.891.2,2.6.392,5.17a24.6,24.6,0,0,0,.885,5.663c.235.671.584,1.01.958.952.455-.071.746-.507.784-1.221a29.508,29.508,0,0,0-.232-4.6,60.773,60.773,0,0,0-1.045-6.313c1.379-.123,2.728-.246,4.107-.375a46.6,46.6,0,0,1,1.03,5c.232,1.594.407,3.114.479,4.565a21.146,21.146,0,0,1-.45,5.982,6.739,6.739,0,0,1-2.09,3.747,3.811,3.811,0,0,1-3.251.835,4.728,4.728,0,0,1-2.859-2.313,14.581,14.581,0,0,1-1.886-5.265,25.7,25.7,0,0,1-.479-4.655l-1.161.364Zm12.7-2.47q-.2-1.84-.348-3.3c-.1-.971-.189-1.82-.2-2.554a25.343,25.343,0,0,1,5.3-1.692c.043.874.232,2.564.464,5.086a22.918,22.918,0,0,0,.958,5.551c.259.663.6.989.987.913.444-.087.713-.526.74-1.238a28.67,28.67,0,0,0-.276-4.515,59.212,59.212,0,0,0-1.146-6.173c1.379-.151,2.714-.319,4.092-.493a44.081,44.081,0,0,1,1.117,4.884c.255,1.57.432,3.059.537,4.487a19.537,19.537,0,0,1-.363,5.882,6.785,6.785,0,0,1-2.046,3.747,3.905,3.905,0,0,1-3.265.947,4.661,4.661,0,0,1-2.873-2.218,14.24,14.24,0,0,1-1.93-5.142,22.232,22.232,0,0,1-.551-4.571C87.879,175.91,87.487,176.044,87.1,176.179Zm12.742-2.526c-.319-1.983-.6-3.635-.885-4.957a11.833,11.833,0,0,1,4.673-2.2c2.686-.73,4.77.022,5.95,2.28a5.157,5.157,0,0,1-.145,5.176,3.984,3.984,0,0,1,2.264,3.131,5.558,5.558,0,0,1-.334,3.467,5.318,5.318,0,0,1-.769,1.193,8.8,8.8,0,0,1-4.484,2.711c-.538.13-1.611.342-3.193.588-.566-2.79-1.016-5.2-1.292-7.22s-.493-3.646-.653-4.851c-.377.224-.769.454-1.132.678Zm4.557-.431c1.335-.185,1.9-.761,1.669-1.731-.09-.38-.258-.62-.566-.655a1.829,1.829,0,0,0-1.422.5c.1.655.189,1.288.319,1.888Zm1.1,6.531c1.64-.163,2.4-.844,2.148-1.983a.814.814,0,0,0-.812-.661,2.421,2.421,0,0,0-1.683.639c.1.767.232,1.434.348,2.005Zm6.675-15.712a33.3,33.3,0,0,0,5.456-1.339c1.088,2.784,2.111,5.593,3.149,8.38s2.1,5.545,3.294,8.284a18.948,18.948,0,0,0-3.744,1.619c-.493-1.165-.943-2.336-1.379-3.523a9.835,9.835,0,0,0-2.1.571c-.044,1.675-.044,2.958.015,3.848a36.319,36.319,0,0,0-4.005.37q.022-3.353.2-6.738c.123-2.252.247-4.509.392-6.761-.435.061-.842.112-1.277.179q.022-2.454,0-4.89Zm4.5,6.694c-.044.706-.058,1.608-.029,2.7.261-.084.537-.179.784-.28A14.916,14.916,0,0,0,116.671,170.734Zm13.322,6.016c-.2-.974-.384-1.973-.58-3s-.363-2.073-.508-3.154c2.249.93,4.116,1.114,5.515.431a1.172,1.172,0,0,0,.74-1.355c-.074-.347-.4-.349-1.016-.112a9.106,9.106,0,0,1-1.7.459,6.133,6.133,0,0,1-1.117.146,4.34,4.34,0,0,1-1.756-.291,2.942,2.942,0,0,1-1.306-1.16,5.231,5.231,0,0,1-.755-1.692,12.481,12.481,0,0,1-.363-3.5,8.95,8.95,0,0,1,.624-3.114c1.248-3.031,4.208-4.123,8.78-3.383.189,1.008.421,2.008.624,3.008s.377,2.011.566,3.019a8.939,8.939,0,0,0-3.091-.65c-1.886,0-2.8.582-2.627,1.7.107.712.729.768,1.829.23a4.8,4.8,0,0,1,2.989-.532,2.844,2.844,0,0,1,2.1,1.529,8.42,8.42,0,0,1,.987,4.24,9.173,9.173,0,0,1-1.059,4.167,6.1,6.1,0,0,1-2.815,2.616,9.419,9.419,0,0,1-6.066.392Zm18.068-21.408c.29.935.509,1.84.711,2.706a24.421,24.421,0,0,1,.421,2.549,23.593,23.593,0,0,0-3.265,1.148c.363,1.669.747,3.331,1.132,5s.8,3.316,1.234,4.963c-1.379.588-2.685,1.087-3.976,1.507q-.588-2.546-1.1-5.125c-.341-1.724-.653-3.445-.972-5.176-1.088.353-2.133.734-3.149,1.143-.247-.9-.442-1.816-.639-2.75s-.377-1.888-.537-2.862c3.338-.93,6.734-1.972,10.144-3.1Zm9.433-1.742a5.621,5.621,0,0,1,2.51,2.683,8.875,8.875,0,0,1,.871,2.42,11.022,11.022,0,0,1-.377,6.285,6.328,6.328,0,0,1-3.846,3.478,3.973,3.973,0,0,1-4.484-1,7.043,7.043,0,0,1-1.6-2.974,12.263,12.263,0,0,1-.551-4.044,9.99,9.99,0,0,1,.842-3.938c1.529-3.24,3.74-4.244,6.632-2.913Zm-3.309,8.878a1.271,1.271,0,0,0,1.684.723,1.949,1.949,0,0,0,1.306-1.316,2.476,2.476,0,0,0-.218-2.179c-.5-.775-1.068-1.057-1.669-.79a2.442,2.442,0,0,0-1.306,2.151,2.487,2.487,0,0,0,.2,1.412Zm6.734-6.1c-.334-1.753-.653-3.226-.914-4.453a15.847,15.847,0,0,1,5.37-2.806,4.605,4.605,0,0,1,2.612.123,3.386,3.386,0,0,1,1.959,1.311,4.983,4.983,0,0,1,.6,3.008,9.241,9.241,0,0,1-1.146,3.512,13.105,13.105,0,0,0,2.8,1.484c-.609,1.49-1.219,3-1.814,4.526-1.1-.846-2.22-1.748-3.323-2.689.3,1.176.595,2.246.856,3.215a16.435,16.435,0,0,1-3.512,1.557c-.218-.7-.514-1.847-.914-3.434s-.885-3.6-1.437-6.072c-.392.241-.755.471-1.132.717Zm4.4-2.672c.16.739.334,1.523.58,2.33a5.68,5.68,0,0,0,.537-.465,1.955,1.955,0,0,0,.638-1.8c-.118-.419-.326-.537-.7-.493A2.193,2.193,0,0,0,165.315,153.706ZM178.2,143.584c.3,1.417.6,2.616.885,3.574-1.292.717-2.6,1.44-3.9,2.162.116.33.232.655.334.992q1.35-.815,2.7-1.624c.29.907.595,1.815.9,2.717-.668.5-1.553,1.115-2.641,1.843.087.308.174.6.276.885,1.146-.734,2.409-1.608,3.773-2.6.45,1.406.842,2.476,1.175,3.238-1.35,1.02-3.744,2.846-7.329,5.277-.493-1.748-.928-3.378-1.35-4.879s-.827-2.868-1.175-4.117c-.319.157-.624.314-.914.459-.392-1.3-.769-2.616-1.175-3.927,1.611-.689,4.426-2.028,8.446-3.994Zm-66.456,26.143a5.829,5.829,0,0,1-.57,2.841,4.416,4.416,0,0,1,1.441,1.477q.124-2.244.261-4.488c-.19.026-.38.053-.569.082l-.563.087ZM57.4,178.52q.012.234.022.468c.053,1.135.118,2.279.245,3.407.042.371.091.758.157,1.142-.023-.747-.073-1.492-.132-2.22q-.114-1.4-.292-2.8ZM68.4,179.762q.188.151.373.3l.017.014q-.039-.227-.079-.454l-.311.135Zm.509,1.053a6.052,6.052,0,0,0-.319,2.246c.01.292.1,1.535.435,1.677a.231.231,0,0,0,.116.008c.023,0,.047-.008.069-.013a7.173,7.173,0,0,0,0-1.309C69.15,182.554,69.046,181.681,68.914,180.814Zm12.218-6.109.029.378c.084,1.1.187,2.214.355,3.308.043.281.091.57.147.859-.047-.664-.114-1.324-.186-1.967q-.144-1.294-.345-2.579Zm12.71-2.376q.008.09.017.179c.1,1.082.213,2.174.391,3.246.042.251.088.511.142.772-.051-.635-.122-1.267-.2-1.884q-.146-1.159-.349-2.313Zm-50.208,8.96q.229.223.456.449l.269.269-.142.353a6.907,6.907,0,0,0-.466,2.6c0,.4.023,2.078.7,2.073a.776.776,0,0,0,.232-.036,7.858,7.858,0,0,0,.05-1.448,39.427,39.427,0,0,0-.472-4.453l-.624.195Zm106.649-24.652q.05-.117.1-.232a9.027,9.027,0,0,1,1.392-2.176c1.612-2.757,3.966-3.678,6.934-2.312a4.6,4.6,0,0,1,.822.49l-.048-.223-.077-.362.3-.221q.37-.275.749-.538l-.115-.539.3-.221a16.563,16.563,0,0,1,5.571-2.9,5.18,5.18,0,0,1,2.935.134l-.045-.144.478-.2q.35-.15.7-.305l-.09-.292-.154-.5.478-.2c1.11-.475,2.209-.992,3.3-1.509,1.713-.811,3.417-1.64,5.12-2.473l.662-.324.155.72c.253,1.178.524,2.374.873,3.528l.135.445-1.132.628q.033.112.066.224l.135.445-.005,0c.268.83.545,1.657.824,2.483l.06.178.461-.335.645-.472.244.761a33.172,33.172,0,0,0,1.154,3.182l.183.417-.363.274-.763.577.013.03.183.417-.363.274c-2.418,1.827-4.843,3.592-7.353,5.294l-.661.448-.217-.769q-.261-.923-.513-1.848-.739,1.818-1.455,3.645l-.279.716-.326-.25q-.164.416-.326.832l-.278.716-.609-.467q-.463-.355-.921-.717-.352.193-.708.378l.187.695-.4.218a16.849,16.849,0,0,1-3.649,1.611l-.529.133-.162-.52c-.351-1.13-.633-2.316-.923-3.464q-.146-.579-.288-1.159a9.512,9.512,0,0,1-.679,3.2,6.258,6.258,0,0,1-1.21,1.887,7.088,7.088,0,0,1-3.893,3.207,4.56,4.56,0,0,1-5.1-1.127,7.607,7.607,0,0,1-1.74-3.213,12.925,12.925,0,0,1-.581-3.54l-.092.026c-.548.153-1.094.321-1.632.508.273,1.219.554,2.437.835,3.654q.574,2.483,1.229,4.945l.127.482-.458.2q-.343.146-.687.288l.087.332.127.482-.458.2c-1.32.563-2.659,1.081-4.024,1.525l-.6.195-.142-.613q-.592-2.563-1.107-5.143c-.3-1.508-.576-3.02-.854-4.532q-.623.212-1.24.44a8.943,8.943,0,0,1,.886,4.195,9.8,9.8,0,0,1-1.133,4.428,7.044,7.044,0,0,1-.927,1.291l0,0a6.621,6.621,0,0,1-3.08,2.861,10.037,10.037,0,0,1-6.431.43l-.363-.081-.076-.364c-.208-1-.39-2-.582-3.006-.2-1.056-.37-2.119-.513-3.185l-.133-.992.179.074a4.8,4.8,0,0,1-.589-.716,5.836,5.836,0,0,1-.838-1.876,13.094,13.094,0,0,1-.38-3.661,9.53,9.53,0,0,1,.667-3.315,6.338,6.338,0,0,1,1.243-1.958c1.819-3.38,5.665-3.627,9.093-3.072l.4.065.074.4c.068.361.141.721.217,1.081l.426-.119c3.4-.946,6.769-1.984,10.118-3.09l.557-.184.174.56c.269.866.487,1.743.693,2.625Zm22.562.011q-.164-.6-.331-1.191c-.189-.671-.382-1.341-.575-2.012a10.532,10.532,0,0,1-.819,2.268A12.836,12.836,0,0,0,172.845,156.649Zm-65.768,21.264a.24.24,0,0,0-.165-.082l.022.115Q107.006,177.93,107.077,177.913Zm49.689-16.455a1.777,1.777,0,0,0-.246-1.3c-.2-.3-.516-.741-.921-.59a3.958,3.958,0,0,0-.067.405,1.947,1.947,0,0,0,.146,1.087.709.709,0,0,0,.985.434q.052-.018.1-.038Z" transform="translate(130.977 -49.587)" fill="#fefefe" fill-rule="evenodd"/>
    <path id="Caminho_70" data-name="Caminho 70" d="M43.153,180.682c-.1-.986-.2-1.985-.348-3s-.348-2.039-.551-3.1a57.382,57.382,0,0,1,5.645-1.126,36.135,36.135,0,0,1,1.1,4c.3,1.439.522,3.025.755,4.7a25.909,25.909,0,0,1-.014,6.823,11.124,11.124,0,0,1-1.625,4.7,4.437,4.437,0,0,1-3.164,1.972,5.174,5.174,0,0,1-2.931-.5A6.96,6.96,0,0,1,39.96,193.2a12.876,12.876,0,0,1-1.48-3.372,23.5,23.5,0,0,1-.392-4.632c.131-2.352.537-4,1.248-4.929a.094.094,0,0,0,.029.006c1.146.952,2.278,1.972,3.338,3.03a7.447,7.447,0,0,0-.508,2.812c0,1.7.421,2.593,1.277,2.65a1.815,1.815,0,0,0,1.48-1.137,3.871,3.871,0,0,0,.3-2.241,46.052,46.052,0,0,0-.581-5.181c-.522.162-1.016.314-1.524.476Z" transform="translate(130.977 -49.587)" fill="#201e1e"/>
    <path id="Caminho_71" data-name="Caminho 71" d="M50.583,182.2c-.1-1.283-.16-2.426-.232-3.428s-.116-1.888-.131-2.627a25.477,25.477,0,0,1,5.355-1.255c.029.9.145,2.655.29,5.282a26.514,26.514,0,0,0,.7,5.842c.247.689.566,1.036.958,1.025.435-.078.7-.482.784-1.2a34.419,34.419,0,0,0-.087-4.711,57.911,57.911,0,0,0-.885-6.481c1.379-.051,2.728-.106,4.107-.174a45.117,45.117,0,0,1,.929,5.164c.189,1.656.29,3.227.319,4.728a21.587,21.587,0,0,1-.61,6.083,6.631,6.631,0,0,1-2.133,3.63,4.166,4.166,0,0,1-3.251.661,5.4,5.4,0,0,1-2.83-2.549,16.455,16.455,0,0,1-1.77-5.495,31.351,31.351,0,0,1-.334-4.767c-.377.078-.8.179-1.175.269Z" transform="translate(130.977 -49.587)" fill="#201e1e"/>
    <path id="Caminho_72" data-name="Caminho 72" d="M67.751,179.259c-.218-1.731-.479-3.546-.8-5.439a36.972,36.972,0,0,1,5.137-1.546c.29,1.087.6,2.274.871,3.551s.537,2.666.769,4.134a23.63,23.63,0,0,1,.189,6.072,9.982,9.982,0,0,1-1.379,4.335,4.572,4.572,0,0,1-2.8,2.162,4.826,4.826,0,0,1-2.627-.045,4.069,4.069,0,0,1-1.843-1.35,9.078,9.078,0,0,1-1.393-2.784,18.857,18.857,0,0,1-.522-4.139,9.618,9.618,0,0,1,.972-4.75h.029a24.692,24.692,0,0,1,3.077,2.207,6.367,6.367,0,0,0-.392,2.571c.044,1.529.435,2.28,1.2,2.235a1.958,1.958,0,0,0,1.306-1.193,3.763,3.763,0,0,0,.188-2.039,38.867,38.867,0,0,0-.638-4.571c-.45.2-.9.386-1.35.588Z" transform="translate(130.977 -49.587)" fill="#201e1e"/>
    <path id="Caminho_73" data-name="Caminho 73" d="M74.4,178.649c-.131-1.249-.239-2.365-.334-3.355s-.145-1.854-.174-2.594a26.567,26.567,0,0,1,5.326-1.585c.044.891.189,2.6.392,5.17a25.771,25.771,0,0,0,.885,5.663c.261.661.581.98.958.952.45-.1.711-.51.784-1.221a34.646,34.646,0,0,0-.232-4.6,60.778,60.778,0,0,0-1.045-6.313c1.379-.123,2.728-.246,4.107-.375a46.578,46.578,0,0,1,1.031,5c.232,1.594.406,3.114.479,4.565a21.171,21.171,0,0,1-.45,5.982,7.033,7.033,0,0,1-2.09,3.747,4.274,4.274,0,0,1-3.251.835,5.133,5.133,0,0,1-2.859-2.313,15.561,15.561,0,0,1-1.886-5.265,30.855,30.855,0,0,1-.479-4.655l-1.161.364Z" transform="translate(130.977 -49.587)" fill="#201e1e"/>
    <path id="Caminho_74" data-name="Caminho 74" d="M87.1,176.178q-.2-1.84-.348-3.3c-.1-.971-.189-1.82-.2-2.554a25.341,25.341,0,0,1,5.3-1.692c.043.874.218,2.566.464,5.086a23.907,23.907,0,0,0,.958,5.551c.29.65.6.952.987.913.435-.123.7-.527.74-1.238a30.825,30.825,0,0,0-.276-4.515,59.238,59.238,0,0,0-1.146-6.173c1.379-.151,2.714-.319,4.092-.493a44.111,44.111,0,0,1,1.118,4.885c.255,1.57.435,3.058.537,4.487a19.408,19.408,0,0,1-.363,5.882,7.054,7.054,0,0,1-2.046,3.747,4.342,4.342,0,0,1-3.265.947,5.041,5.041,0,0,1-2.873-2.218,15.046,15.046,0,0,1-1.93-5.142,25.412,25.412,0,0,1-.551-4.571c-.406.129-.8.263-1.19.4Z" transform="translate(130.977 -49.587)" fill="#201e1e"/>
    <path id="Caminho_75" data-name="Caminho 75" d="M99.837,173.652c-.319-1.983-.595-3.635-.885-4.957a12.727,12.727,0,0,1,4.673-2.2c2.7-.678,4.687.067,5.95,2.28a5.367,5.367,0,0,1-.145,5.176,3.984,3.984,0,0,1,2.264,3.131,5.255,5.255,0,0,1-.334,3.467,3.591,3.591,0,0,1-.769,1.193,8.662,8.662,0,0,1-4.484,2.711c-.537.134-1.611.342-3.193.588-.566-2.79-1.016-5.2-1.292-7.22s-.493-3.646-.653-4.851c-.377.224-.769.454-1.132.678Zm4.557-.431c1.335-.185,1.9-.762,1.669-1.731-.087-.381-.261-.6-.566-.655a1.9,1.9,0,0,0-1.422.5c.1.655.189,1.288.319,1.888Zm1.1,6.531c1.64-.162,2.351-.835,2.148-1.983a.867.867,0,0,0-.812-.661,2.417,2.417,0,0,0-1.684.639c.1.767.232,1.434.348,2.005Z" transform="translate(130.977 -49.587)" fill="#201e1e"/>
    <path id="Caminho_76" data-name="Caminho 76" d="M112.172,164.04a33.286,33.286,0,0,0,5.456-1.339c1.088,2.784,2.111,5.593,3.149,8.38s2.1,5.545,3.294,8.285a18.947,18.947,0,0,0-3.744,1.619c-.493-1.165-.943-2.336-1.379-3.523a9.825,9.825,0,0,0-2.1.571c-.044,1.675-.044,2.958.015,3.848a36.345,36.345,0,0,0-4.005.37q.022-3.353.2-6.738c.123-2.252.247-4.509.392-6.761-.435.062-.842.112-1.277.179q.022-2.454,0-4.89Zm4.5,6.694c-.044.706-.058,1.608-.029,2.7.261-.084.537-.179.784-.28A14.926,14.926,0,0,0,116.671,170.734Z" transform="translate(130.977 -49.587)" fill="#201e1e"/>
    <path id="Caminho_77" data-name="Caminho 77" d="M129.993,176.75c-.2-.975-.384-1.973-.581-3s-.363-2.073-.508-3.154c2.249.93,4.092,1.064,5.515.431a1.225,1.225,0,0,0,.74-1.356c-.073-.347-.406-.375-1.016-.112a8.043,8.043,0,0,1-1.7.459,3.51,3.51,0,0,1-1.117.146,4.075,4.075,0,0,1-1.756-.291,2.741,2.741,0,0,1-1.306-1.16,5.233,5.233,0,0,1-.755-1.692,13.281,13.281,0,0,1-.363-3.5,10.173,10.173,0,0,1,.624-3.114c1.292-3.014,4.208-4.123,8.78-3.383.189,1.008.421,2.008.624,3.008s.377,2.011.566,3.019a8.976,8.976,0,0,0-3.091-.65c-1.887.006-2.757.577-2.627,1.7.145.706.74.79,1.829.23a4.962,4.962,0,0,1,2.989-.532,3.009,3.009,0,0,1,2.1,1.529,9.152,9.152,0,0,1,.987,4.24,9.282,9.282,0,0,1-1.059,4.167,6.4,6.4,0,0,1-2.815,2.616,9.7,9.7,0,0,1-6.066.392Z" transform="translate(130.977 -49.587)" fill="#201e1e"/>
    <path id="Caminho_78" data-name="Caminho 78" d="M148.06,155.341c.29.935.509,1.84.711,2.706a24.4,24.4,0,0,1,.421,2.549,23.609,23.609,0,0,0-3.265,1.148c.363,1.669.747,3.331,1.132,5s.8,3.316,1.234,4.963c-1.379.588-2.685,1.087-3.976,1.507q-.588-2.546-1.1-5.125c-.341-1.724-.653-3.445-.972-5.176-1.088.353-2.133.734-3.149,1.143-.247-.9-.442-1.816-.639-2.75s-.377-1.888-.537-2.862c3.338-.93,6.734-1.972,10.144-3.1Z" transform="translate(130.977 -49.587)" fill="#201e1e"/>
    <path id="Caminho_79" data-name="Caminho 79" d="M157.493,153.6a6.177,6.177,0,0,1,2.51,2.683,11.953,11.953,0,0,1,.871,2.42,11.4,11.4,0,0,1-.377,6.285,6.218,6.218,0,0,1-3.846,3.478,4.073,4.073,0,0,1-4.484-1,8.662,8.662,0,0,1-1.6-2.974,12.991,12.991,0,0,1-.551-4.044,10.227,10.227,0,0,1,.842-3.938c1.524-3.243,3.715-4.19,6.632-2.913Zm-3.309,8.878a1.276,1.276,0,0,0,1.683.723,1.96,1.96,0,0,0,1.306-1.316,2.542,2.542,0,0,0-.218-2.179c-.508-.773-1.059-1.036-1.669-.79a2.529,2.529,0,0,0-1.306,2.151A2.9,2.9,0,0,0,154.184,162.477Z" transform="translate(130.977 -49.587)" fill="#201e1e"/>
    <path id="Caminho_80" data-name="Caminho 80" d="M160.918,156.377c-.334-1.753-.653-3.226-.914-4.453a16.321,16.321,0,0,1,5.37-2.806,4.7,4.7,0,0,1,2.612.123,3.572,3.572,0,0,1,1.959,1.311,5.328,5.328,0,0,1,.595,3.008,9.241,9.241,0,0,1-1.146,3.512,13.1,13.1,0,0,0,2.8,1.484c-.609,1.49-1.219,3-1.814,4.526-1.1-.846-2.22-1.748-3.323-2.689.3,1.176.595,2.246.856,3.215a16.442,16.442,0,0,1-3.512,1.557c-.218-.7-.514-1.847-.914-3.434s-.885-3.6-1.437-6.072c-.392.241-.755.471-1.132.717Zm4.4-2.672c.16.739.334,1.523.581,2.33.174-.151.348-.308.537-.465a2.035,2.035,0,0,0,.638-1.8c-.116-.42-.334-.583-.7-.493A1.813,1.813,0,0,0,165.315,153.705Z" transform="translate(130.977 -49.587)" fill="#201e1e"/>
    <path id="Caminho_81" data-name="Caminho 81" d="M178.2,143.584c.3,1.417.6,2.616.885,3.574-1.292.717-2.6,1.44-3.9,2.162.116.33.232.655.334.991q1.35-.815,2.7-1.624c.29.907.6,1.815.9,2.717-.668.5-1.553,1.115-2.641,1.843.087.308.174.6.276.885,1.146-.734,2.409-1.608,3.773-2.6.45,1.406.842,2.476,1.175,3.238-1.35,1.02-3.744,2.846-7.329,5.277-.493-1.748-.928-3.378-1.35-4.879s-.827-2.868-1.175-4.117c-.319.157-.624.314-.914.459-.392-1.3-.769-2.616-1.175-3.927C171.367,146.889,174.182,145.55,178.2,143.584Z" transform="translate(130.977 -49.587)" fill="#201e1e"/>
    <path id="Caminho_82" data-name="Caminho 82" d="M44.189,179.3c-.1-.986-.2-1.985-.348-3s-.348-2.039-.551-3.1a57.414,57.414,0,0,1,5.645-1.126,36.16,36.16,0,0,1,1.1,4c.3,1.439.522,3.025.755,4.7a25.914,25.914,0,0,1-.015,6.823,11.124,11.124,0,0,1-1.625,4.7,4.438,4.438,0,0,1-3.164,1.972,5.176,5.176,0,0,1-2.931-.5A6.96,6.96,0,0,1,41,191.815a12.879,12.879,0,0,1-1.48-3.372,23.5,23.5,0,0,1-.392-4.632c.131-2.352.537-4,1.248-4.929a.093.093,0,0,0,.029.006c1.146.952,2.278,1.972,3.338,3.03a7.449,7.449,0,0,0-.508,2.812c0,1.7.421,2.593,1.277,2.65a1.815,1.815,0,0,0,1.48-1.137,3.87,3.87,0,0,0,.3-2.241,46.052,46.052,0,0,0-.581-5.181c-.522.162-1.016.314-1.524.476Z" transform="translate(130.977 -49.587)" fill="#fefefe"/>
    <path id="Caminho_83" data-name="Caminho 83" d="M51.619,180.814c-.1-1.283-.16-2.426-.232-3.428s-.116-1.888-.131-2.627a25.478,25.478,0,0,1,5.355-1.255c.029.9.145,2.655.29,5.282a26.506,26.506,0,0,0,.7,5.842c.247.689.566,1.036.958,1.025.435-.079.7-.482.784-1.2a34.388,34.388,0,0,0-.087-4.711,57.89,57.89,0,0,0-.885-6.481c1.379-.051,2.728-.107,4.107-.174a45.1,45.1,0,0,1,.929,5.165c.189,1.656.29,3.227.319,4.728a21.587,21.587,0,0,1-.61,6.083,6.631,6.631,0,0,1-2.133,3.63,4.166,4.166,0,0,1-3.251.661,5.4,5.4,0,0,1-2.83-2.549,16.452,16.452,0,0,1-1.77-5.495,31.326,31.326,0,0,1-.334-4.767c-.377.078-.8.179-1.175.269Z" transform="translate(130.977 -49.587)" fill="#fefefe"/>
    <path id="Caminho_84" data-name="Caminho 84" d="M68.786,177.874c-.218-1.731-.479-3.546-.8-5.439a36.995,36.995,0,0,1,5.137-1.546c.29,1.087.6,2.274.871,3.551s.537,2.666.769,4.134a23.63,23.63,0,0,1,.189,6.072,9.984,9.984,0,0,1-1.379,4.335,4.572,4.572,0,0,1-2.8,2.162,4.826,4.826,0,0,1-2.627-.045,4.07,4.07,0,0,1-1.843-1.35,9.075,9.075,0,0,1-1.393-2.784,18.851,18.851,0,0,1-.522-4.139,9.617,9.617,0,0,1,.972-4.75h.029a24.7,24.7,0,0,1,3.077,2.207,6.365,6.365,0,0,0-.392,2.571c.044,1.529.435,2.28,1.2,2.235a1.958,1.958,0,0,0,1.306-1.193,3.763,3.763,0,0,0,.189-2.039,38.915,38.915,0,0,0-.638-4.571c-.45.2-.9.387-1.35.588Z" transform="translate(130.977 -49.587)" fill="#fefefe"/>
    <path id="Caminho_85" data-name="Caminho 85" d="M75.433,177.263c-.131-1.249-.239-2.365-.334-3.355s-.145-1.854-.174-2.594a26.57,26.57,0,0,1,5.326-1.585c.044.891.189,2.6.392,5.17a25.765,25.765,0,0,0,.885,5.663c.261.661.581.98.958.952.45-.1.711-.51.784-1.221a34.63,34.63,0,0,0-.232-4.6,60.778,60.778,0,0,0-1.045-6.313c1.379-.123,2.728-.246,4.107-.375a46.629,46.629,0,0,1,1.031,5c.232,1.594.406,3.114.479,4.565a21.171,21.171,0,0,1-.45,5.982,7.034,7.034,0,0,1-2.09,3.747,4.274,4.274,0,0,1-3.251.835,5.133,5.133,0,0,1-2.859-2.313,15.561,15.561,0,0,1-1.886-5.265,30.842,30.842,0,0,1-.479-4.655l-1.161.364Z" transform="translate(130.977 -49.587)" fill="#fefefe"/>
    <path id="Caminho_86" data-name="Caminho 86" d="M88.131,174.793q-.2-1.84-.348-3.3c-.1-.971-.189-1.82-.2-2.554a25.338,25.338,0,0,1,5.3-1.692c.043.874.218,2.566.464,5.086a23.907,23.907,0,0,0,.958,5.551c.29.65.6.952.987.913.435-.123.7-.526.74-1.238a30.854,30.854,0,0,0-.276-4.515,59.244,59.244,0,0,0-1.147-6.173c1.379-.151,2.714-.319,4.092-.493a44.111,44.111,0,0,1,1.118,4.885c.255,1.57.435,3.058.537,4.487a19.413,19.413,0,0,1-.363,5.881,7.055,7.055,0,0,1-2.046,3.747,4.342,4.342,0,0,1-3.265.947,5.041,5.041,0,0,1-2.873-2.218,15.047,15.047,0,0,1-1.93-5.142,25.415,25.415,0,0,1-.551-4.571c-.406.129-.8.263-1.19.4Z" transform="translate(130.977 -49.587)" fill="#fefefe"/>
    <path id="Caminho_87" data-name="Caminho 87" d="M100.873,172.267c-.319-1.983-.6-3.635-.885-4.957a12.723,12.723,0,0,1,4.673-2.2c2.7-.678,4.687.067,5.95,2.28a5.367,5.367,0,0,1-.145,5.176,3.984,3.984,0,0,1,2.264,3.131,5.254,5.254,0,0,1-.334,3.467,3.593,3.593,0,0,1-.769,1.193,8.662,8.662,0,0,1-4.484,2.711c-.537.134-1.611.342-3.193.588-.566-2.79-1.016-5.2-1.292-7.22s-.493-3.646-.653-4.851c-.377.224-.769.454-1.132.678Zm4.557-.431c1.335-.185,1.9-.762,1.669-1.731-.087-.381-.261-.6-.566-.655a1.9,1.9,0,0,0-1.422.5c.1.655.189,1.288.319,1.888Zm1.1,6.531c1.64-.162,2.351-.835,2.148-1.983a.867.867,0,0,0-.813-.661,2.416,2.416,0,0,0-1.683.639c.1.767.232,1.434.348,2.005Z" transform="translate(130.977 -49.587)" fill="#fefefe"/>
    <path id="Caminho_88" data-name="Caminho 88" d="M113.208,162.655a33.288,33.288,0,0,0,5.456-1.339c1.088,2.784,2.111,5.593,3.149,8.38s2.1,5.545,3.294,8.284a18.95,18.95,0,0,0-3.744,1.619c-.493-1.165-.943-2.336-1.379-3.523a9.827,9.827,0,0,0-2.1.571c-.044,1.675-.044,2.958.015,3.848a36.343,36.343,0,0,0-4.005.37q.022-3.352.2-6.738c.123-2.252.247-4.509.392-6.761-.435.062-.842.112-1.277.179q.021-2.454,0-4.89Zm4.5,6.694c-.044.706-.058,1.608-.029,2.7.261-.084.537-.179.784-.28A14.913,14.913,0,0,0,117.707,169.349Z" transform="translate(130.977 -49.587)" fill="#fefefe"/>
    <path id="Caminho_89" data-name="Caminho 89" d="M131.029,175.364c-.2-.975-.384-1.973-.58-3s-.363-2.072-.508-3.154c2.249.93,4.092,1.064,5.515.431a1.225,1.225,0,0,0,.74-1.355c-.073-.347-.406-.375-1.016-.112a8.034,8.034,0,0,1-1.7.459,3.506,3.506,0,0,1-1.117.146,4.073,4.073,0,0,1-1.756-.291,2.741,2.741,0,0,1-1.306-1.16,5.233,5.233,0,0,1-.755-1.692,13.285,13.285,0,0,1-.363-3.5,10.175,10.175,0,0,1,.624-3.114c1.292-3.014,4.208-4.123,8.78-3.383.189,1.008.421,2.008.624,3.008s.377,2.011.566,3.019a8.976,8.976,0,0,0-3.091-.65c-1.886.006-2.757.577-2.626,1.7.145.706.74.79,1.829.23a4.963,4.963,0,0,1,2.989-.532,3.009,3.009,0,0,1,2.1,1.529,9.151,9.151,0,0,1,.987,4.24,9.281,9.281,0,0,1-1.059,4.167,6.4,6.4,0,0,1-2.815,2.616,9.7,9.7,0,0,1-6.066.392Z" transform="translate(130.977 -49.587)" fill="#fefefe"/>
    <path id="Caminho_90" data-name="Caminho 90" d="M149.1,153.956c.29.935.509,1.84.711,2.706a24.452,24.452,0,0,1,.421,2.549,23.6,23.6,0,0,0-3.265,1.148c.363,1.669.747,3.331,1.132,5s.8,3.316,1.234,4.963c-1.379.588-2.685,1.087-3.976,1.507q-.588-2.546-1.1-5.125c-.341-1.724-.653-3.445-.972-5.176-1.088.353-2.133.734-3.149,1.143-.247-.9-.443-1.816-.639-2.75s-.377-1.888-.537-2.862c3.338-.93,6.734-1.972,10.144-3.1Z" transform="translate(130.977 -49.587)" fill="#fefefe"/>
    <path id="Caminho_91" data-name="Caminho 91" d="M158.529,152.214a6.177,6.177,0,0,1,2.51,2.683,11.953,11.953,0,0,1,.871,2.42,11.4,11.4,0,0,1-.377,6.285,6.218,6.218,0,0,1-3.846,3.479,4.074,4.074,0,0,1-4.484-1,8.665,8.665,0,0,1-1.6-2.974,13,13,0,0,1-.551-4.044,10.229,10.229,0,0,1,.842-3.938c1.524-3.243,3.715-4.19,6.632-2.913Zm-3.309,8.878a1.276,1.276,0,0,0,1.683.723,1.96,1.96,0,0,0,1.306-1.316,2.543,2.543,0,0,0-.218-2.179c-.508-.773-1.059-1.036-1.669-.79a2.529,2.529,0,0,0-1.306,2.151,2.9,2.9,0,0,0,.2,1.411Z" transform="translate(130.977 -49.587)" fill="#fefefe"/>
    <path id="Caminho_92" data-name="Caminho 92" d="M161.954,154.992c-.334-1.753-.653-3.226-.914-4.453a16.322,16.322,0,0,1,5.37-2.806,4.7,4.7,0,0,1,2.612.123,3.572,3.572,0,0,1,1.959,1.311,5.328,5.328,0,0,1,.6,3.008,9.243,9.243,0,0,1-1.147,3.512,13.108,13.108,0,0,0,2.8,1.484c-.609,1.49-1.219,3-1.814,4.526-1.1-.846-2.22-1.748-3.323-2.689.3,1.176.6,2.246.856,3.215a16.438,16.438,0,0,1-3.512,1.557c-.218-.7-.514-1.847-.914-3.434s-.885-3.6-1.437-6.072c-.392.241-.755.471-1.132.717Zm4.4-2.672c.16.739.334,1.523.58,2.33.174-.151.348-.308.537-.465a2.035,2.035,0,0,0,.638-1.8c-.116-.42-.334-.583-.7-.493a1.812,1.812,0,0,0-1.059.431Z" transform="translate(130.977 -49.587)" fill="#fefefe"/>
    <path id="Caminho_93" data-name="Caminho 93" d="M179.237,142.2c.3,1.417.6,2.616.885,3.574-1.291.717-2.6,1.439-3.9,2.162.116.33.232.655.334.991q1.35-.815,2.7-1.624c.29.907.595,1.815.9,2.717-.668.5-1.553,1.115-2.641,1.843.087.308.174.6.276.885,1.146-.734,2.409-1.608,3.773-2.6.45,1.406.842,2.476,1.175,3.238-1.35,1.02-3.744,2.846-7.329,5.277-.493-1.748-.928-3.378-1.35-4.879s-.827-2.868-1.175-4.117c-.319.157-.624.314-.914.459-.392-1.3-.769-2.616-1.175-3.927,1.611-.689,4.426-2.028,8.446-3.994Z" transform="translate(130.977 -49.587)" fill="#fefefe"/>
    <path id="Caminho_94" data-name="Caminho 94" d="M44.189,179.3c-.1-.986-.2-1.985-.348-3s-.348-2.039-.551-3.1a57.4,57.4,0,0,1,5.645-1.126,36.16,36.16,0,0,1,1.1,4c.3,1.439.539,3.023.755,4.7a25.229,25.229,0,0,1-.015,6.823,10.9,10.9,0,0,1-1.625,4.7,4.333,4.333,0,0,1-3.164,1.972,4.692,4.692,0,0,1-2.931-.5A6.113,6.113,0,0,1,41,191.815a10.988,10.988,0,0,1-1.48-3.372,17.307,17.307,0,0,1-.392-4.632,8.823,8.823,0,0,1,1.248-4.929.093.093,0,0,0,.029.006c1.146.952,2.278,1.972,3.338,3.03a7.45,7.45,0,0,0-.508,2.812c0,1.7.419,2.656,1.277,2.65a1.7,1.7,0,0,0,1.48-1.137,3.87,3.87,0,0,0,.3-2.241,46.072,46.072,0,0,0-.58-5.181c-.523.163-1.016.314-1.524.476Zm-3.674.439a10.44,10.44,0,0,0-.815,4.094,16.749,16.749,0,0,0,.375,4.476,10.431,10.431,0,0,0,1.4,3.2,5.544,5.544,0,0,0,1.868,1.771,4.162,4.162,0,0,0,2.577.423,3.767,3.767,0,0,0,2.753-1.727,10.489,10.489,0,0,0,1.528-4.453,24.745,24.745,0,0,0,.013-6.667c-.2-1.555-.423-3.12-.747-4.654a34.831,34.831,0,0,0-.937-3.484c-.666.1-1.331.223-1.987.357-.865.177-1.728.372-2.588.571.165.857.327,1.716.451,2.58.11.77.2,1.543.278,2.316l.852-.264.637-.2.1.659a44.622,44.622,0,0,1,.587,5.25,4.844,4.844,0,0,1-.392,2.573,2.246,2.246,0,0,1-1.965,1.4,1.531,1.531,0,0,1-.67-.143c-1.059-.5-1.188-2.068-1.188-3.083a8.225,8.225,0,0,1,.415-2.664c-.822-.808-1.677-1.584-2.555-2.33Z" transform="translate(130.977 -49.587)" fill="#400e61"/>
    <path id="Caminho_95" data-name="Caminho 95" d="M51.619,180.814c-.1-1.283-.16-2.426-.232-3.428s-.116-1.888-.131-2.627a25.477,25.477,0,0,1,5.355-1.255c.029.9.167,2.654.29,5.282a26.084,26.084,0,0,0,.7,5.842c.219.7.568,1.067.958,1.025.44-.047.726-.479.784-1.2a30.273,30.273,0,0,0-.087-4.711,57.938,57.938,0,0,0-.885-6.481c1.379-.051,2.728-.106,4.107-.174a45.144,45.144,0,0,1,.929,5.165c.189,1.656.281,3.227.319,4.728a21.95,21.95,0,0,1-.61,6.083,6.434,6.434,0,0,1-2.133,3.63,3.739,3.739,0,0,1-3.251.661,4.959,4.959,0,0,1-2.83-2.549,15.237,15.237,0,0,1-1.77-5.495,25.4,25.4,0,0,1-.334-4.767c-.377.079-.8.179-1.175.269Zm.224-5.637c.023.723.066,1.447.118,2.167.066.918.118,1.836.182,2.754.178-.041.355-.08.534-.117l.737-.153-.044.751a15.276,15.276,0,0,0,.026,1.862c.06.932.169,1.865.3,2.789a14.827,14.827,0,0,0,1.7,5.287,4.568,4.568,0,0,0,2.469,2.279,3.168,3.168,0,0,0,2.763-.559,5.965,5.965,0,0,0,1.926-3.318A21.488,21.488,0,0,0,63.146,183c-.04-1.564-.138-3.123-.316-4.677a43.191,43.191,0,0,0-.81-4.631q-1.481.07-2.963.126c.356,1.948.608,3.907.769,5.883a30.249,30.249,0,0,1,.087,4.8c-.063.781-.417,1.63-1.3,1.725-.852.092-1.349-.722-1.57-1.426a13.6,13.6,0,0,1-.471-2.505c-.13-1.154-.2-2.323-.251-3.483-.051-1.095-.113-2.189-.18-3.282-.028-.461-.06-.924-.084-1.387-.558.076-1.116.192-1.658.32C53.543,174.667,52.688,174.913,51.843,175.177Z" transform="translate(130.977 -49.587)" fill="#400e61"/>
    <path id="Caminho_96" data-name="Caminho 96" d="M68.786,177.874c-.218-1.731-.479-3.546-.8-5.439a36.995,36.995,0,0,1,5.137-1.546c.29,1.087.6,2.274.871,3.551s.549,2.665.769,4.134a23.1,23.1,0,0,1,.189,6.072,10.176,10.176,0,0,1-1.379,4.335,4.581,4.581,0,0,1-2.8,2.162,4.5,4.5,0,0,1-2.627-.045,3.915,3.915,0,0,1-1.843-1.35,8.529,8.529,0,0,1-1.393-2.784,15.432,15.432,0,0,1-.523-4.139,9.217,9.217,0,0,1,.972-4.75h.029a24.692,24.692,0,0,1,3.077,2.207,6.567,6.567,0,0,0-.392,2.571c.055,1.529.441,2.339,1.2,2.235a1.81,1.81,0,0,0,1.306-1.193,3.764,3.764,0,0,0,.188-2.039,38.891,38.891,0,0,0-.638-4.571c-.45.2-.9.387-1.35.588Zm-3.194,1a10.362,10.362,0,0,0-.627,3.945,14.89,14.89,0,0,0,.5,3.984,7.96,7.96,0,0,0,1.3,2.6,3.349,3.349,0,0,0,1.579,1.153,3.973,3.973,0,0,0,2.291.027,4.03,4.03,0,0,0,2.453-1.912,9.715,9.715,0,0,0,1.292-4.093,22.605,22.605,0,0,0-.186-5.92c-.206-1.375-.47-2.739-.763-4.1-.216-1-.463-2-.724-2.993a36.2,36.2,0,0,0-4.074,1.245q.347,2.106.624,4.223l.646-.279.659-.287.137.705a39.22,39.22,0,0,1,.647,4.639,4.613,4.613,0,0,1-.263,2.369,2.343,2.343,0,0,1-1.729,1.475,1.36,1.36,0,0,1-.718-.087c-.959-.4-1.108-1.8-1.14-2.7a7.308,7.308,0,0,1,.294-2.4,24.591,24.591,0,0,0-2.2-1.6Z" transform="translate(130.977 -49.587)" fill="#400e61"/>
    <path id="Caminho_97" data-name="Caminho 97" d="M75.433,177.263c-.131-1.249-.239-2.365-.334-3.355s-.145-1.854-.174-2.594a26.569,26.569,0,0,1,5.326-1.585c.044.891.2,2.6.392,5.17a24.593,24.593,0,0,0,.885,5.663c.235.671.584,1.01.958.952.455-.071.747-.507.784-1.221a29.5,29.5,0,0,0-.232-4.6,60.752,60.752,0,0,0-1.045-6.313c1.379-.123,2.728-.246,4.107-.375a46.611,46.611,0,0,1,1.031,5c.232,1.594.407,3.114.479,4.565a21.143,21.143,0,0,1-.45,5.982,6.739,6.739,0,0,1-2.09,3.747,3.81,3.81,0,0,1-3.251.835,4.728,4.728,0,0,1-2.859-2.313,14.582,14.582,0,0,1-1.886-5.265,25.681,25.681,0,0,1-.479-4.655l-1.161.364Zm7.259-7.365q.593,2.844.918,5.733a29.4,29.4,0,0,1,.235,4.693,1.68,1.68,0,0,1-1.271,1.761c-.836.13-1.35-.645-1.59-1.331a13.6,13.6,0,0,1-.552-2.415c-.172-1.122-.278-2.263-.365-3.395-.081-1.071-.168-2.141-.253-3.212-.035-.44-.072-.882-.1-1.324-.55.111-1.1.26-1.629.419-.865.258-1.721.559-2.566.878q.052,1.076.154,2.149.126,1.325.261,2.648l.489-.153.76-.237-.012.8a24.734,24.734,0,0,0,.47,4.545,14.2,14.2,0,0,0,1.8,5.057,4.3,4.3,0,0,0,2.484,2.058,3.236,3.236,0,0,0,2.773-.713,6.256,6.256,0,0,0,1.9-3.439,20.683,20.683,0,0,0,.434-5.818c-.074-1.509-.256-3.016-.474-4.511a44.962,44.962,0,0,0-.9-4.46Q84.178,169.764,82.692,169.9Z" transform="translate(130.977 -49.587)" fill="#400e61"/>
    <path id="Caminho_98" data-name="Caminho 98" d="M88.131,174.793q-.2-1.84-.348-3.3c-.1-.971-.189-1.82-.2-2.554a25.336,25.336,0,0,1,5.3-1.692c.043.874.232,2.564.464,5.086a22.913,22.913,0,0,0,.958,5.551c.259.663.6.989.987.913.444-.087.713-.526.74-1.238a28.682,28.682,0,0,0-.276-4.515,59.241,59.241,0,0,0-1.147-6.173c1.379-.151,2.714-.319,4.092-.493a44.111,44.111,0,0,1,1.118,4.885c.255,1.57.432,3.059.537,4.487a19.54,19.54,0,0,1-.363,5.881,6.785,6.785,0,0,1-2.046,3.747,3.9,3.9,0,0,1-3.265.947,4.661,4.661,0,0,1-2.873-2.218,14.239,14.239,0,0,1-1.93-5.142,22.231,22.231,0,0,1-.551-4.571c-.406.129-.8.263-1.19.4Zm.5-.778q.259-.087.519-.169l.775-.245-.025.812A12.326,12.326,0,0,0,90,176.194c.1.891.259,1.78.435,2.659a13.9,13.9,0,0,0,1.842,4.932,4.245,4.245,0,0,0,2.492,1.973,3.331,3.331,0,0,0,2.8-.818,6.3,6.3,0,0,0,1.859-3.44,19.066,19.066,0,0,0,.349-5.707c-.11-1.486-.293-2.966-.531-4.437a41.768,41.768,0,0,0-.97-4.343c-.987.124-1.974.247-2.963.36.421,1.848.773,3.721,1.01,5.6a28.754,28.754,0,0,1,.28,4.609,1.69,1.69,0,0,1-1.205,1.782c-.843.165-1.367-.582-1.635-1.269a12.094,12.094,0,0,1-.593-2.379c-.183-1.1-.3-2.219-.4-3.329-.1-1.053-.2-2.106-.3-3.159-.041-.428-.085-.86-.12-1.291-.549.121-1.1.278-1.626.447-.861.275-1.712.594-2.549.935.033.7.114,1.417.187,2.114q.135,1.291.272,2.581Z" transform="translate(130.977 -49.587)" fill="#400e61"/>
    <path id="Caminho_99" data-name="Caminho 99" d="M100.873,172.267c-.319-1.983-.6-3.635-.885-4.957a11.832,11.832,0,0,1,4.673-2.2c2.686-.73,4.77.022,5.95,2.28a5.157,5.157,0,0,1-.145,5.176,3.985,3.985,0,0,1,2.264,3.131,5.558,5.558,0,0,1-.334,3.467,5.3,5.3,0,0,1-.769,1.193,8.8,8.8,0,0,1-4.484,2.711c-.538.13-1.611.342-3.193.588-.566-2.789-1.016-5.2-1.292-7.22s-.493-3.646-.653-4.851c-.377.224-.769.454-1.132.678Zm.434-.934.4-.239.751-.446.115.866q.321,2.425.653,4.849c.3,2.22.732,4.443,1.176,6.643.869-.138,1.759-.29,2.6-.493a8.242,8.242,0,0,0,4.2-2.542,4.828,4.828,0,0,0,.68-1.066,5.165,5.165,0,0,0,.277-3.113,3.412,3.412,0,0,0-1.949-2.7l-.548-.27.3-.532a4.592,4.592,0,0,0,.135-4.624c-1.118-2.139-3.052-2.6-5.288-1.99a12.556,12.556,0,0,0-4.187,1.859C100.89,168.785,101.1,170.063,101.307,171.333Zm3.56.625c-.138-.635-.226-1.281-.326-1.922l-.049-.315.241-.209a2.4,2.4,0,0,1,1.865-.635,1.265,1.265,0,0,1,1.061,1.1,1.874,1.874,0,0,1-.107,1.29,2.537,2.537,0,0,1-2.043,1.145l-.529.073-.114-.521Zm.952,3.958a3.012,3.012,0,0,1,2.083-.768,1.386,1.386,0,0,1,1.341,1.112,2.04,2.04,0,0,1-.126,1.364,2.994,2.994,0,0,1-2.527,1.317l-.518.051-.1-.51c-.138-.679-.264-1.357-.355-2.045l-.042-.318.248-.2Zm-.389-4.081c1.335-.185,1.9-.761,1.669-1.731-.09-.38-.258-.62-.566-.655a1.829,1.829,0,0,0-1.422.5c.1.655.189,1.288.319,1.888Zm1.1,6.531c1.64-.162,2.4-.844,2.148-1.983a.814.814,0,0,0-.813-.661,2.421,2.421,0,0,0-1.683.639c.1.767.232,1.434.348,2.005Z" transform="translate(130.977 -49.587)" fill="#400e61"/>
    <path id="Caminho_100" data-name="Caminho 100" d="M113.208,162.655a33.29,33.29,0,0,0,5.457-1.339c1.088,2.784,2.111,5.593,3.149,8.38s2.1,5.545,3.294,8.285a18.948,18.948,0,0,0-3.744,1.619c-.493-1.165-.943-2.336-1.379-3.523a9.825,9.825,0,0,0-2.1.571c-.044,1.675-.044,2.958.015,3.848a36.344,36.344,0,0,0-4.005.37q.022-3.353.2-6.738c.123-2.252.247-4.509.392-6.761-.435.062-.842.112-1.277.179q.022-2.454,0-4.89Zm5.119-.616a33.913,33.913,0,0,1-4.539,1.1q.013,1.87,0,3.74l.615-.084.7-.1-.046.707c-.145,2.251-.268,4.5-.391,6.755q-.165,3.02-.2,6.046c.935-.121,1.876-.212,2.818-.261-.043-1.1-.013-2.224.015-3.311l.01-.374.346-.143a10.357,10.357,0,0,1,2.229-.607l.472-.08.165.45c.359.979.73,1.953,1.126,2.917a19.709,19.709,0,0,1,2.672-1.175c-1.089-2.545-2.085-5.129-3.051-7.722-.977-2.622-1.935-5.25-2.946-7.859Zm-.089,7.088a15.483,15.483,0,0,1,.785,2.513l.11.478-.454.185c-.27.11-.547.206-.825.295l-.732.236-.021-.769c-.024-.913-.026-1.838.03-2.751l.152-2.468Zm-.532.223c-.044.706-.058,1.608-.029,2.7.261-.084.537-.179.784-.28A14.923,14.923,0,0,0,117.707,169.349Z" transform="translate(130.977 -49.587)" fill="#400e61"/>
    <path id="Caminho_101" data-name="Caminho 101" d="M131.029,175.364c-.2-.975-.384-1.973-.58-3s-.363-2.072-.508-3.154c2.249.93,4.116,1.114,5.515.431a1.172,1.172,0,0,0,.74-1.356c-.073-.347-.4-.349-1.016-.112a9.092,9.092,0,0,1-1.7.459,6.134,6.134,0,0,1-1.117.146,4.339,4.339,0,0,1-1.756-.291,2.942,2.942,0,0,1-1.306-1.16,5.233,5.233,0,0,1-.755-1.692,12.481,12.481,0,0,1-.363-3.5,8.95,8.95,0,0,1,.624-3.114c1.248-3.031,4.208-4.123,8.78-3.383.189,1.008.421,2.008.624,3.008s.377,2.011.566,3.019a8.939,8.939,0,0,0-3.091-.65c-1.887,0-2.8.582-2.627,1.7.107.712.729.768,1.829.23a4.8,4.8,0,0,1,2.989-.532,2.844,2.844,0,0,1,2.1,1.529,8.42,8.42,0,0,1,.987,4.24,9.175,9.175,0,0,1-1.059,4.168,6.1,6.1,0,0,1-2.815,2.616,9.418,9.418,0,0,1-6.066.392Zm.489-.487a8.694,8.694,0,0,0,5.338-.43,5.522,5.522,0,0,0,2.552-2.374,8.677,8.677,0,0,0,.986-3.907,7.872,7.872,0,0,0-.923-3.953,2.269,2.269,0,0,0-1.7-1.228,4.3,4.3,0,0,0-2.63.483c-.635.311-1.571.671-2.206.17a1.264,1.264,0,0,1-.446-.831,1.875,1.875,0,0,1,.17-1.168c.543-1.034,1.989-1.195,3.026-1.2a8.39,8.39,0,0,1,2.349.371c-.125-.684-.249-1.368-.387-2.049-.177-.872-.375-1.74-.548-2.614-3.073-.435-6.421-.154-7.758,3.094a8.389,8.389,0,0,0-.581,2.914,11.935,11.935,0,0,0,.345,3.34,4.686,4.686,0,0,0,.672,1.508,2.459,2.459,0,0,0,1.04.948,3.792,3.792,0,0,0,1.529.252,5.952,5.952,0,0,0,1.022-.135,9.3,9.3,0,0,0,1.6-.432,1.476,1.476,0,0,1,1.477,0,.918.918,0,0,1,.308.53,1.75,1.75,0,0,1-1.051,1.993,6.727,6.727,0,0,1-5.06-.067q.162,1.085.367,2.163c.167.873.327,1.747.5,2.619Z" transform="translate(130.977 -49.587)" fill="#400e61"/>
    <path id="Caminho_102" data-name="Caminho 102" d="M149.1,153.956c.29.935.509,1.84.711,2.706a24.4,24.4,0,0,1,.421,2.549,23.614,23.614,0,0,0-3.265,1.148c.363,1.669.747,3.331,1.132,5s.8,3.316,1.234,4.963c-1.379.588-2.685,1.087-3.976,1.507q-.588-2.546-1.1-5.125c-.341-1.724-.653-3.445-.972-5.176-1.088.353-2.133.734-3.149,1.143-.247-.9-.443-1.816-.639-2.75s-.377-1.888-.537-2.862c3.338-.93,6.734-1.972,10.144-3.1Zm.5,4.837c-.089-.671-.193-1.339-.348-2-.165-.705-.335-1.408-.533-2.1q-4.524,1.482-9.106,2.78.2,1.168.447,2.329c.147.7.3,1.4.468,2.094q1.276-.494,2.578-.916l.625-.2.119.647c.318,1.724.631,3.449.971,5.168q.446,2.252.958,4.489c.969-.333,1.926-.7,2.872-1.1q-.586-2.24-1.111-4.5c-.385-1.666-.77-3.333-1.133-5l-.1-.457.427-.191a22.936,22.936,0,0,1,2.866-1.039Z" transform="translate(130.977 -49.587)" fill="#400e61"/>
    <path id="Caminho_103" data-name="Caminho 103" d="M158.529,152.214a5.622,5.622,0,0,1,2.511,2.683,8.878,8.878,0,0,1,.871,2.42,11.02,11.02,0,0,1-.377,6.285,6.327,6.327,0,0,1-3.846,3.479,3.973,3.973,0,0,1-4.484-1,7.044,7.044,0,0,1-1.6-2.974,12.264,12.264,0,0,1-.551-4.044,9.991,9.991,0,0,1,.842-3.938c1.529-3.24,3.74-4.244,6.632-2.913Zm-.241.524c-2.843-1.309-4.618-.018-5.87,2.635a9.527,9.527,0,0,0-.787,3.711,11.7,11.7,0,0,0,.526,3.855,6.564,6.564,0,0,0,1.452,2.736,3.412,3.412,0,0,0,3.872.867A5.782,5.782,0,0,0,161,163.381a10.623,10.623,0,0,0,.344-5.957,8.323,8.323,0,0,0-.816-2.262A5.15,5.15,0,0,0,158.288,152.738ZM154.7,161.35a3.077,3.077,0,0,1-.26-1.736A3.025,3.025,0,0,1,156.089,157a1.9,1.9,0,0,1,2.386,1,3.056,3.056,0,0,1,.285,2.665,2.523,2.523,0,0,1-1.673,1.691,1.847,1.847,0,0,1-2.382-1.011Zm.516-.258a1.27,1.27,0,0,0,1.683.723,1.949,1.949,0,0,0,1.306-1.316,2.476,2.476,0,0,0-.218-2.179c-.5-.775-1.068-1.057-1.669-.79a2.443,2.443,0,0,0-1.306,2.151A2.485,2.485,0,0,0,155.22,161.092Z" transform="translate(130.977 -49.587)" fill="#400e61"/>
    <path id="Caminho_104" data-name="Caminho 104" d="M161.954,154.992c-.334-1.753-.653-3.226-.914-4.453a15.843,15.843,0,0,1,5.37-2.806,4.6,4.6,0,0,1,2.612.123,3.386,3.386,0,0,1,1.959,1.311,4.984,4.984,0,0,1,.6,3.008,9.241,9.241,0,0,1-1.147,3.512,13.111,13.111,0,0,0,2.8,1.484c-.609,1.49-1.219,3-1.814,4.526-1.1-.846-2.22-1.748-3.323-2.689.3,1.176.6,2.246.856,3.215a16.443,16.443,0,0,1-3.512,1.557c-.218-.7-.514-1.847-.914-3.434s-.885-3.6-1.437-6.072C162.694,154.516,162.331,154.746,161.954,154.992Zm.4-.943.426-.265.688-.423.176.789q.678,3.037,1.433,6.057c.238.943.47,1.914.742,2.856.3-.1.593-.227.874-.352.534-.237,1.059-.5,1.576-.777-.25-.926-.5-1.852-.739-2.781l-.458-1.77,1.391,1.186q1.323,1.128,2.693,2.2.647-1.643,1.316-3.277a14.993,14.993,0,0,1-2.368-1.327l-.432-.289.243-.459A8.773,8.773,0,0,0,171,152.128a4.439,4.439,0,0,0-.516-2.667,2.973,2.973,0,0,0-1.645-1.058,4.032,4.032,0,0,0-2.288-.112,14.958,14.958,0,0,0-4.871,2.492C161.913,151.871,162.142,152.958,162.358,154.049Zm4.023.77c-.24-.783-.42-1.577-.593-2.377l-.079-.366.3-.221a2.784,2.784,0,0,1,1.331-.538,1.124,1.124,0,0,1,1.32.908,2.549,2.549,0,0,1-.765,2.347,6.133,6.133,0,0,1-.587.514l-.67.581-.259-.848Zm-.029-2.5c.16.739.334,1.523.581,2.33a5.682,5.682,0,0,0,.537-.465,1.955,1.955,0,0,0,.638-1.8c-.118-.419-.326-.537-.7-.493a2.195,2.195,0,0,0-1.059.431Z" transform="translate(130.977 -49.587)" fill="#400e61"/>
    <path id="Caminho_105" data-name="Caminho 105" d="M179.238,142.2c.3,1.417.595,2.616.885,3.574-1.292.717-2.6,1.439-3.9,2.162.116.33.232.655.334.991q1.35-.815,2.7-1.624c.29.907.6,1.815.9,2.717-.668.5-1.553,1.115-2.641,1.843.087.308.174.6.276.885,1.146-.734,2.409-1.608,3.773-2.6.45,1.406.842,2.476,1.176,3.238-1.35,1.02-3.744,2.846-7.329,5.277-.493-1.748-.928-3.378-1.35-4.879s-.827-2.868-1.175-4.117c-.319.157-.624.314-.914.459-.392-1.3-.769-2.616-1.175-3.927C172.4,145.5,175.218,144.164,179.238,142.2Zm-.407.84q-2.231,1.089-4.473,2.156c-.948.449-1.9.9-2.864,1.321.282.924.553,1.852.828,2.778l.3-.152.623-.306.186.669c.383,1.374.789,2.742,1.175,4.116s.753,2.738,1.133,4.106c2.136-1.466,4.213-2.979,6.284-4.537-.284-.69-.536-1.4-.772-2.116-1.035.745-2.086,1.471-3.159,2.158l-.611.391-.243-.683c-.108-.3-.2-.612-.288-.922l-.114-.4.348-.233c.766-.513,1.535-1.034,2.281-1.578q-.275-.817-.544-1.636-1.039.624-2.076,1.251l-.635.383-.215-.71c-.1-.326-.213-.646-.326-.967l-.161-.46.426-.236q1.75-.968,3.5-1.938c-.23-.808-.426-1.632-.609-2.453Z" transform="translate(130.977 -49.587)" fill="#400e61"/>
  </g>
</svg>
