<svg xmlns="http://www.w3.org/2000/svg" width="23.116" height="33.053" viewBox="0 0 23.116 33.053">
  <path id="União_2" data-name="União 2" d="M11.083,32.739a36.155,36.155,0,0,0-5.031-7.783A42.109,42.109,0,0,1,1.9,18.918,15.5,15.5,0,0,1,0,11.558a11.558,11.558,0,0,1,23.117,0,15.5,15.5,0,0,1-1.9,7.36,42.159,42.159,0,0,1-4.153,6.038,36.121,36.121,0,0,0-5.031,7.783.518.518,0,0,1-.951,0ZM1.035,11.558c0,5.254,2.834,8.9,5.834,12.763a41.387,41.387,0,0,1,4.689,6.98,41.445,41.445,0,0,1,4.69-6.98c3-3.861,5.834-7.509,5.834-12.763a10.523,10.523,0,0,0-21.047,0Zm9.527,7.631A7.693,7.693,0,0,1,5.313,7.063a1.071,1.071,0,0,1,.868-.438h1.1a1.062,1.062,0,0,1,1.024.761l.1.342h6.46a.518.518,0,0,1,.517.517v3.313a1.623,1.623,0,0,1-1.621,1.621h-3.6a1.61,1.61,0,0,1-1.552-1.156l-1.3-4.34a.035.035,0,0,0-.033-.024h-1.1a.039.039,0,0,0-.029.009,6.654,6.654,0,1,0,2.332-2.02.517.517,0,0,1-.478-.918,7.695,7.695,0,1,1,3.55,14.521A7.877,7.877,0,0,1,10.562,19.189Zm-.953-7.462a.582.582,0,0,0,.562.418h3.6a.587.587,0,0,0,.586-.586V8.764H8.72Zm3.64,3.143a1.07,1.07,0,1,1,1.069,1.07A1.07,1.07,0,0,1,13.249,14.87Zm-5.521,0A1.07,1.07,0,1,1,8.8,15.94,1.07,1.07,0,0,1,7.728,14.87Z" fill="red"/>
</svg>
