<svg xmlns="http://www.w3.org/2000/svg" width="48.695" height="26.166" viewBox="0 0 48.695 26.166">
  <path id="Caminho_469" data-name="Caminho 469" d="M23.421,10468.165H23.4c-2.532-.014-4.844-2.074-8.58-6.572a.111.111,0,0,1,.025,0l-.221-.264c-7.635.963-16.068,1.443-14.419-1.113,1.023-1.592,5.235-3.787,10.349-5.713l.18.543c-2.648,1.205-5.169,2.732-6.1,4.719-.839,1.783,4.209,1.654,9.555,1.043l-.154-.182s-.007,0-.011,0c-.168-.209-.191-.234-.366-.451a20.227,20.227,0,0,1-3.741-11.365,6.818,6.818,0,0,1,6.812-6.811,6.14,6.14,0,0,1,4.046,1.281,4.45,4.45,0,0,0,2.646,1.207,4.456,4.456,0,0,0,2.643-1.207A6.14,6.14,0,0,1,30.11,10442a6.818,6.818,0,0,1,6.81,6.811,20.507,20.507,0,0,1-1.749,7.91q.236-.536.44-1.082c3.362-1.4,5.441-2.332,6.9-4.145s-1.8-2.113-5.314-2.109l-.009-.98c7.778-.779,12.654-.01,11.281,2.125s-6.555,4.523-13.586,6.826l.006-.014a17.029,17.029,0,0,1-1.706,2.834c-4.264,5.254-7.005,7.977-9.744,7.99Zm11.69-11.309c.017-.037.034-.074.05-.113C35.144,10456.782,35.127,10456.819,35.11,10456.856Z" transform="translate(-0.001 -10441.999)" fill="red"/>
</svg>
