<svg xmlns="http://www.w3.org/2000/svg" width="33.182" height="30.589" viewBox="0 0 33.182 30.589">
  <path id="União_3" data-name="União 3" d="M29.8,30.589a.7.7,0,0,1-.186-.024.7.7,0,0,1-.186.024H22.165a.615.615,0,0,1-.649-.575V23.061l-4.131-5.446a7.325,7.325,0,0,1-.794-1.311,7.278,7.278,0,0,1-.795,1.311l-4.131,5.446v.454a.653.653,0,0,1-1.3,0v-.629a.529.529,0,0,1,.111-.321l4.241-5.591a5.86,5.86,0,0,0,1.218-3.341L9.208,19.607h0a.688.688,0,0,1-.457.167h-4.5A2.8,2.8,0,0,0,1.3,22.393v7.046H3.111V22.885a.615.615,0,0,1,.648-.576.616.616,0,0,1,.648.576v6.554H10.37V28.058a.653.653,0,0,1,1.3,0v1.956a.615.615,0,0,1-.648.575H3.759a.7.7,0,0,1-.186-.024.7.7,0,0,1-.186.024H.648A.615.615,0,0,1,0,30.014V22.393a4.032,4.032,0,0,1,4.245-3.767h.523a2.714,2.714,0,0,1-.681-1.78v-.812a3.136,3.136,0,0,1,3.3-2.93,3.137,3.137,0,0,1,3.3,2.93v.631l4.875-4.327a1.068,1.068,0,0,1,1.026-.2,1.066,1.066,0,0,1,1.025.2l4.876,4.327v-.631a3.136,3.136,0,0,1,3.3-2.93,3.137,3.137,0,0,1,3.3,2.93v.812a2.714,2.714,0,0,1-.681,1.78h.523a4.032,4.032,0,0,1,4.244,3.767v7.621a.615.615,0,0,1-.648.575Zm.275-5.406v4.256h1.814V22.393a2.8,2.8,0,0,0-2.948-2.617h-4.5A.694.694,0,0,1,24,19.627l-.024-.02-6.732-5.975a5.86,5.86,0,0,0,1.218,3.341L22.7,22.564a.529.529,0,0,1,.111.321v6.554h5.963V25.183a.653.653,0,0,1,1.3,0Zm-6.283-9.149v.812a2.019,2.019,0,0,0,4.01,0v-.812a2.019,2.019,0,0,0-4.01,0Zm-18.406,0v.812a1.9,1.9,0,0,0,2.005,1.78,1.9,1.9,0,0,0,2.005-1.78v-.812a1.905,1.905,0,0,0-2.005-1.78A1.906,1.906,0,0,0,5.383,16.034Zm14.36-7.9a.8.8,0,0,1,0-1.138l2.046-2.048a.8.8,0,0,1,1.138,1.138L20.881,8.13a.805.805,0,0,1-1.138,0ZM12.189,8,10.265,6.081A.8.8,0,1,1,11.4,4.944l1.924,1.922A.8.8,0,0,1,12.189,8Zm3.6-2.416V.8a.8.8,0,1,1,1.608,0V5.588a.8.8,0,1,1-1.608,0Z" fill="red"/>
</svg>
